<mxfile host="Electron" agent="Mozilla/5.0 (X11; Linux x86_64) AppleWebKit/537.36 (KHTML, like Gecko) draw.io/25.0.2 Chrome/128.0.6613.186 Electron/32.2.5 Safari/537.36" version="25.0.2" pages="12">
  <diagram id="Do8zwDsj1B5ZW2ZvopxQ" name="ページ1">
    <mxGraphModel dx="469" dy="319" grid="1" gridSize="10" guides="1" tooltips="1" connect="1" arrows="1" fold="1" page="1" pageScale="1" pageWidth="827" pageHeight="1169" math="1" shadow="0">
      <root>
        <mxCell id="0" />
        <mxCell id="1" parent="0" />
        <mxCell id="SmbJLO3C9JeI3lkGNcdC-2" value="" style="endArrow=none;html=1;rounded=0;" edge="1" parent="1">
          <mxGeometry width="50" height="50" relative="1" as="geometry">
            <mxPoint x="120" y="440" as="sourcePoint" />
            <mxPoint x="120" y="120" as="targetPoint" />
          </mxGeometry>
        </mxCell>
        <mxCell id="SmbJLO3C9JeI3lkGNcdC-3" value="" style="endArrow=none;html=1;rounded=0;" edge="1" parent="1">
          <mxGeometry width="50" height="50" relative="1" as="geometry">
            <mxPoint x="520" y="440" as="sourcePoint" />
            <mxPoint x="520" y="120" as="targetPoint" />
          </mxGeometry>
        </mxCell>
        <mxCell id="SmbJLO3C9JeI3lkGNcdC-4" value="" style="endArrow=none;html=1;rounded=0;" edge="1" parent="1">
          <mxGeometry width="50" height="50" relative="1" as="geometry">
            <mxPoint x="120" y="179.57999999999998" as="sourcePoint" />
            <mxPoint x="280" y="179.57999999999998" as="targetPoint" />
          </mxGeometry>
        </mxCell>
        <mxCell id="SmbJLO3C9JeI3lkGNcdC-5" value="" style="endArrow=none;html=1;rounded=0;" edge="1" parent="1">
          <mxGeometry width="50" height="50" relative="1" as="geometry">
            <mxPoint x="280" y="190" as="sourcePoint" />
            <mxPoint x="320" y="180" as="targetPoint" />
          </mxGeometry>
        </mxCell>
        <mxCell id="SmbJLO3C9JeI3lkGNcdC-6" value="" style="endArrow=none;html=1;rounded=0;" edge="1" parent="1">
          <mxGeometry width="50" height="50" relative="1" as="geometry">
            <mxPoint x="320" y="179.57999999999998" as="sourcePoint" />
            <mxPoint x="520" y="179.57999999999998" as="targetPoint" />
          </mxGeometry>
        </mxCell>
        <mxCell id="SmbJLO3C9JeI3lkGNcdC-9" value="R" style="whiteSpace=wrap;html=1;aspect=fixed;" vertex="1" parent="1">
          <mxGeometry x="400" y="160" width="40" height="40" as="geometry" />
        </mxCell>
        <mxCell id="SmbJLO3C9JeI3lkGNcdC-12" value="" style="endArrow=none;html=1;rounded=0;" edge="1" parent="1">
          <mxGeometry width="50" height="50" relative="1" as="geometry">
            <mxPoint x="120" y="260" as="sourcePoint" />
            <mxPoint x="280" y="260" as="targetPoint" />
          </mxGeometry>
        </mxCell>
        <mxCell id="SmbJLO3C9JeI3lkGNcdC-13" value="" style="endArrow=none;html=1;rounded=0;" edge="1" parent="1">
          <mxGeometry width="50" height="50" relative="1" as="geometry">
            <mxPoint x="280" y="260" as="sourcePoint" />
            <mxPoint x="280" y="230" as="targetPoint" />
          </mxGeometry>
        </mxCell>
        <mxCell id="SmbJLO3C9JeI3lkGNcdC-14" value="" style="endArrow=none;html=1;rounded=0;" edge="1" parent="1">
          <mxGeometry width="50" height="50" relative="1" as="geometry">
            <mxPoint x="270" y="240" as="sourcePoint" />
            <mxPoint x="320" y="260" as="targetPoint" />
          </mxGeometry>
        </mxCell>
        <mxCell id="SmbJLO3C9JeI3lkGNcdC-15" value="" style="endArrow=none;html=1;rounded=0;" edge="1" parent="1">
          <mxGeometry width="50" height="50" relative="1" as="geometry">
            <mxPoint x="320" y="259.76" as="sourcePoint" />
            <mxPoint x="520" y="259.76" as="targetPoint" />
          </mxGeometry>
        </mxCell>
        <mxCell id="SmbJLO3C9JeI3lkGNcdC-1" value="" style="verticalLabelPosition=bottom;verticalAlign=top;html=1;shape=mxgraph.flowchart.or;" vertex="1" parent="1">
          <mxGeometry x="400" y="240" width="40" height="40" as="geometry" />
        </mxCell>
        <mxCell id="SmbJLO3C9JeI3lkGNcdC-16" value="" style="endArrow=none;html=1;rounded=0;" edge="1" parent="1">
          <mxGeometry width="50" height="50" relative="1" as="geometry">
            <mxPoint x="280" y="350" as="sourcePoint" />
            <mxPoint x="320" y="340" as="targetPoint" />
          </mxGeometry>
        </mxCell>
        <mxCell id="SmbJLO3C9JeI3lkGNcdC-17" value="" style="endArrow=none;html=1;rounded=0;" edge="1" parent="1">
          <mxGeometry width="50" height="50" relative="1" as="geometry">
            <mxPoint x="200" y="260" as="sourcePoint" />
            <mxPoint x="280" y="340" as="targetPoint" />
            <Array as="points">
              <mxPoint x="200" y="340" />
            </Array>
          </mxGeometry>
        </mxCell>
        <mxCell id="SmbJLO3C9JeI3lkGNcdC-18" value="" style="endArrow=none;html=1;rounded=0;" edge="1" parent="1">
          <mxGeometry width="50" height="50" relative="1" as="geometry">
            <mxPoint x="320" y="339.76" as="sourcePoint" />
            <mxPoint x="520" y="339.76" as="targetPoint" />
          </mxGeometry>
        </mxCell>
        <mxCell id="SmbJLO3C9JeI3lkGNcdC-10" value="" style="verticalLabelPosition=bottom;verticalAlign=top;html=1;shape=mxgraph.flowchart.or;" vertex="1" parent="1">
          <mxGeometry x="400" y="320" width="40" height="40" as="geometry" />
        </mxCell>
        <mxCell id="SmbJLO3C9JeI3lkGNcdC-19" value="&lt;font style=&quot;font-size: 15px;&quot; face=&quot;Times New Roman&quot;&gt;L1&lt;/font&gt;" style="text;html=1;align=center;verticalAlign=middle;resizable=0;points=[];autosize=1;strokeColor=none;fillColor=none;" vertex="1" parent="1">
          <mxGeometry x="400" y="218" width="40" height="30" as="geometry" />
        </mxCell>
        <mxCell id="SmbJLO3C9JeI3lkGNcdC-20" value="&lt;font style=&quot;font-size: 15px;&quot; face=&quot;Times New Roman&quot;&gt;L2&lt;/font&gt;" style="text;html=1;align=center;verticalAlign=middle;resizable=0;points=[];autosize=1;strokeColor=none;fillColor=none;" vertex="1" parent="1">
          <mxGeometry x="400" y="290" width="40" height="30" as="geometry" />
        </mxCell>
        <mxCell id="SmbJLO3C9JeI3lkGNcdC-21" value="&lt;font style=&quot;font-size: 15px;&quot; face=&quot;Times New Roman&quot;&gt;-V&lt;/font&gt;" style="text;html=1;align=center;verticalAlign=middle;resizable=0;points=[];autosize=1;strokeColor=none;fillColor=none;" vertex="1" parent="1">
          <mxGeometry x="520" y="245" width="40" height="30" as="geometry" />
        </mxCell>
        <mxCell id="SmbJLO3C9JeI3lkGNcdC-22" value="&lt;font style=&quot;font-size: 15px;&quot; face=&quot;Times New Roman&quot;&gt;+24V&lt;/font&gt;" style="text;html=1;align=center;verticalAlign=middle;resizable=0;points=[];autosize=1;strokeColor=none;fillColor=none;" vertex="1" parent="1">
          <mxGeometry x="70" y="248" width="60" height="30" as="geometry" />
        </mxCell>
        <mxCell id="SmbJLO3C9JeI3lkGNcdC-23" value="&lt;font style=&quot;font-size: 15px;&quot; face=&quot;Times New Roman&quot;&gt;3&amp;nbsp; &amp;nbsp; &amp;nbsp; &amp;nbsp;&amp;nbsp;&lt;/font&gt;&lt;span style=&quot;font-size: 15px; font-family: &amp;quot;Times New Roman&amp;quot;; background-color: initial;&quot;&gt;4&lt;/span&gt;" style="text;html=1;align=center;verticalAlign=middle;resizable=0;points=[];autosize=1;strokeColor=none;fillColor=none;" vertex="1" parent="1">
          <mxGeometry x="260" y="180" width="70" height="30" as="geometry" />
        </mxCell>
        <mxCell id="SmbJLO3C9JeI3lkGNcdC-24" value="&lt;font face=&quot;Times New Roman&quot;&gt;&lt;span style=&quot;font-size: 15px;&quot;&gt;14&amp;nbsp; &amp;nbsp; &amp;nbsp; &amp;nbsp; &amp;nbsp; &amp;nbsp; &amp;nbsp;&lt;/span&gt;&lt;/font&gt;&lt;span style=&quot;font-size: 15px; font-family: &amp;quot;Times New Roman&amp;quot;; background-color: initial;&quot;&gt;13&lt;/span&gt;" style="text;html=1;align=center;verticalAlign=middle;resizable=0;points=[];autosize=1;strokeColor=none;fillColor=none;" vertex="1" parent="1">
          <mxGeometry x="370" y="180" width="100" height="30" as="geometry" />
        </mxCell>
        <mxCell id="SmbJLO3C9JeI3lkGNcdC-25" value="&lt;font face=&quot;Times New Roman&quot;&gt;&lt;span style=&quot;font-size: 15px;&quot;&gt;9&amp;nbsp; &amp;nbsp; &amp;nbsp; &amp;nbsp; &amp;nbsp; &amp;nbsp; 1&lt;/span&gt;&lt;/font&gt;" style="text;html=1;align=center;verticalAlign=middle;resizable=0;points=[];autosize=1;strokeColor=none;fillColor=none;" vertex="1" parent="1">
          <mxGeometry x="260" y="260" width="80" height="30" as="geometry" />
        </mxCell>
        <mxCell id="SmbJLO3C9JeI3lkGNcdC-26" value="&lt;font face=&quot;Times New Roman&quot;&gt;&lt;span style=&quot;font-size: 15px;&quot;&gt;9&amp;nbsp; &amp;nbsp; &amp;nbsp; &amp;nbsp; &amp;nbsp; &amp;nbsp;5&lt;/span&gt;&lt;/font&gt;" style="text;html=1;align=center;verticalAlign=middle;resizable=0;points=[];autosize=1;strokeColor=none;fillColor=none;" vertex="1" parent="1">
          <mxGeometry x="260" y="340" width="80" height="30" as="geometry" />
        </mxCell>
        <mxCell id="SmbJLO3C9JeI3lkGNcdC-27" value="&lt;font face=&quot;Times New Roman&quot;&gt;&lt;span style=&quot;font-size: 15px;&quot;&gt;NO&lt;/span&gt;&lt;/font&gt;" style="text;html=1;align=center;verticalAlign=middle;resizable=0;points=[];autosize=1;strokeColor=none;fillColor=none;" vertex="1" parent="1">
          <mxGeometry x="270" y="150" width="50" height="30" as="geometry" />
        </mxCell>
      </root>
    </mxGraphModel>
  </diagram>
  <diagram name="2" id="bETEXhWkh4g5GbxUOK-L">
    <mxGraphModel dx="821" dy="558" grid="1" gridSize="10" guides="1" tooltips="1" connect="1" arrows="1" fold="1" page="1" pageScale="1" pageWidth="827" pageHeight="1169" math="1" shadow="0">
      <root>
        <mxCell id="Fk_FDH4JovxsSknxwLYy-0" />
        <mxCell id="Fk_FDH4JovxsSknxwLYy-1" parent="Fk_FDH4JovxsSknxwLYy-0" />
        <mxCell id="Fk_FDH4JovxsSknxwLYy-2" value="" style="endArrow=none;html=1;rounded=0;" edge="1" parent="Fk_FDH4JovxsSknxwLYy-1">
          <mxGeometry width="50" height="50" relative="1" as="geometry">
            <mxPoint x="120" y="440" as="sourcePoint" />
            <mxPoint x="120" y="120" as="targetPoint" />
          </mxGeometry>
        </mxCell>
        <mxCell id="Fk_FDH4JovxsSknxwLYy-3" value="" style="endArrow=none;html=1;rounded=0;" edge="1" parent="Fk_FDH4JovxsSknxwLYy-1">
          <mxGeometry width="50" height="50" relative="1" as="geometry">
            <mxPoint x="520" y="440" as="sourcePoint" />
            <mxPoint x="520" y="120" as="targetPoint" />
          </mxGeometry>
        </mxCell>
        <mxCell id="Fk_FDH4JovxsSknxwLYy-4" value="" style="endArrow=none;html=1;rounded=0;" edge="1" parent="Fk_FDH4JovxsSknxwLYy-1">
          <mxGeometry width="50" height="50" relative="1" as="geometry">
            <mxPoint x="120" y="179.57999999999998" as="sourcePoint" />
            <mxPoint x="280" y="179.57999999999998" as="targetPoint" />
          </mxGeometry>
        </mxCell>
        <mxCell id="Fk_FDH4JovxsSknxwLYy-5" value="" style="endArrow=none;html=1;rounded=0;" edge="1" parent="Fk_FDH4JovxsSknxwLYy-1">
          <mxGeometry width="50" height="50" relative="1" as="geometry">
            <mxPoint x="280" y="190" as="sourcePoint" />
            <mxPoint x="320" y="180" as="targetPoint" />
          </mxGeometry>
        </mxCell>
        <mxCell id="Fk_FDH4JovxsSknxwLYy-6" value="" style="endArrow=none;html=1;rounded=0;" edge="1" parent="Fk_FDH4JovxsSknxwLYy-1">
          <mxGeometry width="50" height="50" relative="1" as="geometry">
            <mxPoint x="320" y="179.57999999999998" as="sourcePoint" />
            <mxPoint x="520" y="179.57999999999998" as="targetPoint" />
          </mxGeometry>
        </mxCell>
        <mxCell id="Fk_FDH4JovxsSknxwLYy-7" value="T" style="whiteSpace=wrap;html=1;aspect=fixed;" vertex="1" parent="Fk_FDH4JovxsSknxwLYy-1">
          <mxGeometry x="400" y="160" width="40" height="40" as="geometry" />
        </mxCell>
        <mxCell id="Fk_FDH4JovxsSknxwLYy-8" value="" style="endArrow=none;html=1;rounded=0;" edge="1" parent="Fk_FDH4JovxsSknxwLYy-1">
          <mxGeometry width="50" height="50" relative="1" as="geometry">
            <mxPoint x="120" y="260" as="sourcePoint" />
            <mxPoint x="280" y="260" as="targetPoint" />
          </mxGeometry>
        </mxCell>
        <mxCell id="Fk_FDH4JovxsSknxwLYy-11" value="" style="endArrow=none;html=1;rounded=0;" edge="1" parent="Fk_FDH4JovxsSknxwLYy-1">
          <mxGeometry width="50" height="50" relative="1" as="geometry">
            <mxPoint x="320" y="259.76" as="sourcePoint" />
            <mxPoint x="520" y="259.76" as="targetPoint" />
          </mxGeometry>
        </mxCell>
        <mxCell id="Fk_FDH4JovxsSknxwLYy-12" value="" style="verticalLabelPosition=bottom;verticalAlign=top;html=1;shape=mxgraph.flowchart.or;" vertex="1" parent="Fk_FDH4JovxsSknxwLYy-1">
          <mxGeometry x="400" y="240" width="40" height="40" as="geometry" />
        </mxCell>
        <mxCell id="Fk_FDH4JovxsSknxwLYy-13" value="" style="endArrow=none;html=1;rounded=0;" edge="1" parent="Fk_FDH4JovxsSknxwLYy-1">
          <mxGeometry width="50" height="50" relative="1" as="geometry">
            <mxPoint x="280" y="270" as="sourcePoint" />
            <mxPoint x="320" y="260" as="targetPoint" />
          </mxGeometry>
        </mxCell>
        <mxCell id="Fk_FDH4JovxsSknxwLYy-17" value="&lt;font style=&quot;font-size: 15px;&quot; face=&quot;Times New Roman&quot;&gt;L1&lt;/font&gt;" style="text;html=1;align=center;verticalAlign=middle;resizable=0;points=[];autosize=1;strokeColor=none;fillColor=none;" vertex="1" parent="Fk_FDH4JovxsSknxwLYy-1">
          <mxGeometry x="400" y="218" width="40" height="30" as="geometry" />
        </mxCell>
        <mxCell id="Fk_FDH4JovxsSknxwLYy-18" value="&lt;font style=&quot;font-size: 15px;&quot; face=&quot;Times New Roman&quot;&gt;L2&lt;/font&gt;" style="text;html=1;align=center;verticalAlign=middle;resizable=0;points=[];autosize=1;strokeColor=none;fillColor=none;" vertex="1" parent="Fk_FDH4JovxsSknxwLYy-1">
          <mxGeometry x="400" y="290" width="40" height="30" as="geometry" />
        </mxCell>
        <mxCell id="Fk_FDH4JovxsSknxwLYy-19" value="&lt;font style=&quot;font-size: 15px;&quot; face=&quot;Times New Roman&quot;&gt;-V&lt;/font&gt;" style="text;html=1;align=center;verticalAlign=middle;resizable=0;points=[];autosize=1;strokeColor=none;fillColor=none;" vertex="1" parent="Fk_FDH4JovxsSknxwLYy-1">
          <mxGeometry x="520" y="245" width="40" height="30" as="geometry" />
        </mxCell>
        <mxCell id="Fk_FDH4JovxsSknxwLYy-20" value="&lt;font style=&quot;font-size: 15px;&quot; face=&quot;Times New Roman&quot;&gt;+24V&lt;/font&gt;" style="text;html=1;align=center;verticalAlign=middle;resizable=0;points=[];autosize=1;strokeColor=none;fillColor=none;" vertex="1" parent="Fk_FDH4JovxsSknxwLYy-1">
          <mxGeometry x="70" y="248" width="60" height="30" as="geometry" />
        </mxCell>
        <mxCell id="Fk_FDH4JovxsSknxwLYy-21" value="&lt;font style=&quot;font-size: 15px;&quot; face=&quot;Times New Roman&quot;&gt;3&amp;nbsp; &amp;nbsp; &amp;nbsp; &amp;nbsp;&amp;nbsp;&lt;/font&gt;&lt;span style=&quot;font-size: 15px; font-family: &amp;quot;Times New Roman&amp;quot;; background-color: initial;&quot;&gt;4&lt;/span&gt;" style="text;html=1;align=center;verticalAlign=middle;resizable=0;points=[];autosize=1;strokeColor=none;fillColor=none;" vertex="1" parent="Fk_FDH4JovxsSknxwLYy-1">
          <mxGeometry x="260" y="180" width="70" height="30" as="geometry" />
        </mxCell>
        <mxCell id="Fk_FDH4JovxsSknxwLYy-22" value="&lt;font face=&quot;Times New Roman&quot;&gt;&lt;span style=&quot;font-size: 15px;&quot;&gt;14&amp;nbsp; &amp;nbsp; &amp;nbsp; &amp;nbsp; &amp;nbsp; &amp;nbsp; &amp;nbsp;&lt;/span&gt;&lt;/font&gt;&lt;span style=&quot;font-size: 15px; font-family: &amp;quot;Times New Roman&amp;quot;; background-color: initial;&quot;&gt;13&lt;/span&gt;" style="text;html=1;align=center;verticalAlign=middle;resizable=0;points=[];autosize=1;strokeColor=none;fillColor=none;" vertex="1" parent="Fk_FDH4JovxsSknxwLYy-1">
          <mxGeometry x="370" y="180" width="100" height="30" as="geometry" />
        </mxCell>
        <mxCell id="Fk_FDH4JovxsSknxwLYy-23" value="&lt;font face=&quot;Times New Roman&quot;&gt;&lt;span style=&quot;font-size: 15px;&quot;&gt;9&amp;nbsp; &amp;nbsp; &amp;nbsp; &amp;nbsp; &amp;nbsp; &amp;nbsp; 1&lt;/span&gt;&lt;/font&gt;" style="text;html=1;align=center;verticalAlign=middle;resizable=0;points=[];autosize=1;strokeColor=none;fillColor=none;" vertex="1" parent="Fk_FDH4JovxsSknxwLYy-1">
          <mxGeometry x="260" y="260" width="80" height="30" as="geometry" />
        </mxCell>
        <mxCell id="Fk_FDH4JovxsSknxwLYy-25" value="&lt;font face=&quot;Times New Roman&quot;&gt;&lt;span style=&quot;font-size: 15px;&quot;&gt;NO&lt;/span&gt;&lt;/font&gt;" style="text;html=1;align=center;verticalAlign=middle;resizable=0;points=[];autosize=1;strokeColor=none;fillColor=none;" vertex="1" parent="Fk_FDH4JovxsSknxwLYy-1">
          <mxGeometry x="270" y="150" width="50" height="30" as="geometry" />
        </mxCell>
      </root>
    </mxGraphModel>
  </diagram>
  <diagram name="3" id="DypEGMjPghatfW_TADIF">
    <mxGraphModel dx="684" dy="465" grid="1" gridSize="10" guides="1" tooltips="1" connect="1" arrows="1" fold="1" page="1" pageScale="1" pageWidth="827" pageHeight="1169" math="1" shadow="0">
      <root>
        <mxCell id="IASWtuJa9X0qE0C1knDn-0" />
        <mxCell id="IASWtuJa9X0qE0C1knDn-1" parent="IASWtuJa9X0qE0C1knDn-0" />
        <mxCell id="IAzx4fVQ6igQfoRVBpJQ-12" value="" style="group" vertex="1" connectable="0" parent="IASWtuJa9X0qE0C1knDn-1">
          <mxGeometry x="280" y="280" width="80" height="120" as="geometry" />
        </mxCell>
        <mxCell id="IAzx4fVQ6igQfoRVBpJQ-1" value="" style="rounded=0;whiteSpace=wrap;html=1;" vertex="1" parent="IAzx4fVQ6igQfoRVBpJQ-12">
          <mxGeometry width="80" height="120" as="geometry" />
        </mxCell>
        <mxCell id="IAzx4fVQ6igQfoRVBpJQ-2" value="6" style="rounded=0;whiteSpace=wrap;html=1;" vertex="1" parent="IAzx4fVQ6igQfoRVBpJQ-12">
          <mxGeometry x="10" y="10" width="20" height="20" as="geometry" />
        </mxCell>
        <mxCell id="IAzx4fVQ6igQfoRVBpJQ-3" value="7" style="rounded=0;whiteSpace=wrap;html=1;" vertex="1" parent="IAzx4fVQ6igQfoRVBpJQ-12">
          <mxGeometry x="10" y="30" width="20" height="20" as="geometry" />
        </mxCell>
        <mxCell id="IAzx4fVQ6igQfoRVBpJQ-4" value="8" style="rounded=0;whiteSpace=wrap;html=1;" vertex="1" parent="IAzx4fVQ6igQfoRVBpJQ-12">
          <mxGeometry x="10" y="50" width="20" height="20" as="geometry" />
        </mxCell>
        <mxCell id="IAzx4fVQ6igQfoRVBpJQ-5" value="9" style="rounded=0;whiteSpace=wrap;html=1;" vertex="1" parent="IAzx4fVQ6igQfoRVBpJQ-12">
          <mxGeometry x="10" y="70" width="20" height="20" as="geometry" />
        </mxCell>
        <mxCell id="IAzx4fVQ6igQfoRVBpJQ-6" value="10" style="rounded=0;whiteSpace=wrap;html=1;" vertex="1" parent="IAzx4fVQ6igQfoRVBpJQ-12">
          <mxGeometry x="10" y="90" width="20" height="20" as="geometry" />
        </mxCell>
        <mxCell id="IAzx4fVQ6igQfoRVBpJQ-13" style="edgeStyle=orthogonalEdgeStyle;rounded=0;orthogonalLoop=1;jettySize=auto;html=1;endArrow=none;endFill=0;" edge="1" parent="IAzx4fVQ6igQfoRVBpJQ-12" source="IAzx4fVQ6igQfoRVBpJQ-7">
          <mxGeometry relative="1" as="geometry">
            <mxPoint x="320" y="20" as="targetPoint" />
          </mxGeometry>
        </mxCell>
        <mxCell id="IAzx4fVQ6igQfoRVBpJQ-7" value="1" style="rounded=0;whiteSpace=wrap;html=1;" vertex="1" parent="IAzx4fVQ6igQfoRVBpJQ-12">
          <mxGeometry x="50" y="10" width="20" height="20" as="geometry" />
        </mxCell>
        <mxCell id="IAzx4fVQ6igQfoRVBpJQ-8" value="2" style="rounded=0;whiteSpace=wrap;html=1;" vertex="1" parent="IAzx4fVQ6igQfoRVBpJQ-12">
          <mxGeometry x="50" y="30" width="20" height="20" as="geometry" />
        </mxCell>
        <mxCell id="IAzx4fVQ6igQfoRVBpJQ-9" value="3" style="rounded=0;whiteSpace=wrap;html=1;" vertex="1" parent="IAzx4fVQ6igQfoRVBpJQ-12">
          <mxGeometry x="50" y="50" width="20" height="20" as="geometry" />
        </mxCell>
        <mxCell id="IAzx4fVQ6igQfoRVBpJQ-10" value="4" style="rounded=0;whiteSpace=wrap;html=1;" vertex="1" parent="IAzx4fVQ6igQfoRVBpJQ-12">
          <mxGeometry x="50" y="70" width="20" height="20" as="geometry" />
        </mxCell>
        <mxCell id="IAzx4fVQ6igQfoRVBpJQ-11" value="5" style="rounded=0;whiteSpace=wrap;html=1;" vertex="1" parent="IAzx4fVQ6igQfoRVBpJQ-12">
          <mxGeometry x="50" y="90" width="20" height="20" as="geometry" />
        </mxCell>
        <mxCell id="IASWtuJa9X0qE0C1knDn-2" value="" style="endArrow=none;html=1;rounded=0;" edge="1" parent="IASWtuJa9X0qE0C1knDn-1">
          <mxGeometry width="50" height="50" relative="1" as="geometry">
            <mxPoint x="120" y="440" as="sourcePoint" />
            <mxPoint x="120" y="120" as="targetPoint" />
          </mxGeometry>
        </mxCell>
        <mxCell id="IASWtuJa9X0qE0C1knDn-3" value="" style="endArrow=none;html=1;rounded=0;" edge="1" parent="IASWtuJa9X0qE0C1knDn-1">
          <mxGeometry width="50" height="50" relative="1" as="geometry">
            <mxPoint x="600" y="440" as="sourcePoint" />
            <mxPoint x="600" y="120" as="targetPoint" />
          </mxGeometry>
        </mxCell>
        <mxCell id="IASWtuJa9X0qE0C1knDn-8" value="" style="endArrow=none;html=1;rounded=0;entryX=1;entryY=0.5;entryDx=0;entryDy=0;" edge="1" parent="IASWtuJa9X0qE0C1knDn-1" target="IAzx4fVQ6igQfoRVBpJQ-9">
          <mxGeometry width="50" height="50" relative="1" as="geometry">
            <mxPoint x="120" y="260" as="sourcePoint" />
            <mxPoint x="280" y="260" as="targetPoint" />
            <Array as="points">
              <mxPoint x="400" y="260" />
              <mxPoint x="400" y="320" />
              <mxPoint x="400" y="340" />
            </Array>
          </mxGeometry>
        </mxCell>
        <mxCell id="IASWtuJa9X0qE0C1knDn-15" value="" style="endArrow=none;html=1;rounded=0;" edge="1" parent="IASWtuJa9X0qE0C1knDn-1">
          <mxGeometry width="50" height="50" relative="1" as="geometry">
            <mxPoint x="350" y="361" as="sourcePoint" />
            <mxPoint x="600" y="361" as="targetPoint" />
          </mxGeometry>
        </mxCell>
        <mxCell id="IASWtuJa9X0qE0C1knDn-16" value="" style="verticalLabelPosition=bottom;verticalAlign=top;html=1;shape=mxgraph.flowchart.or;" vertex="1" parent="IASWtuJa9X0qE0C1knDn-1">
          <mxGeometry x="480" y="340" width="40" height="40" as="geometry" />
        </mxCell>
        <mxCell id="IASWtuJa9X0qE0C1knDn-18" value="&lt;font style=&quot;font-size: 15px;&quot; face=&quot;Times New Roman&quot;&gt;L&lt;/font&gt;" style="text;html=1;align=center;verticalAlign=middle;resizable=0;points=[];autosize=1;strokeColor=none;fillColor=none;" vertex="1" parent="IASWtuJa9X0qE0C1knDn-1">
          <mxGeometry x="485" y="380" width="30" height="30" as="geometry" />
        </mxCell>
        <mxCell id="IASWtuJa9X0qE0C1knDn-19" value="&lt;font style=&quot;font-size: 15px;&quot; face=&quot;Times New Roman&quot;&gt;-V&lt;/font&gt;" style="text;html=1;align=center;verticalAlign=middle;resizable=0;points=[];autosize=1;strokeColor=none;fillColor=none;" vertex="1" parent="IASWtuJa9X0qE0C1knDn-1">
          <mxGeometry x="600" y="245" width="40" height="30" as="geometry" />
        </mxCell>
        <mxCell id="IASWtuJa9X0qE0C1knDn-20" value="&lt;font style=&quot;font-size: 15px;&quot; face=&quot;Times New Roman&quot;&gt;+24V&lt;/font&gt;" style="text;html=1;align=center;verticalAlign=middle;resizable=0;points=[];autosize=1;strokeColor=none;fillColor=none;" vertex="1" parent="IASWtuJa9X0qE0C1knDn-1">
          <mxGeometry x="70" y="248" width="60" height="30" as="geometry" />
        </mxCell>
        <mxCell id="IAzx4fVQ6igQfoRVBpJQ-15" value="" style="endArrow=none;html=1;rounded=0;startArrow=oval;startFill=1;" edge="1" parent="IASWtuJa9X0qE0C1knDn-1">
          <mxGeometry width="50" height="50" relative="1" as="geometry">
            <mxPoint x="400" y="320" as="sourcePoint" />
            <mxPoint x="350" y="320" as="targetPoint" />
          </mxGeometry>
        </mxCell>
        <mxCell id="IAzx4fVQ6igQfoRVBpJQ-16" value="" style="endArrow=none;html=1;rounded=0;" edge="1" parent="IASWtuJa9X0qE0C1knDn-1">
          <mxGeometry width="50" height="50" relative="1" as="geometry">
            <mxPoint x="200" y="300" as="sourcePoint" />
            <mxPoint x="290" y="300" as="targetPoint" />
          </mxGeometry>
        </mxCell>
        <mxCell id="IAzx4fVQ6igQfoRVBpJQ-18" value="" style="endArrow=none;html=1;rounded=0;" edge="1" parent="IASWtuJa9X0qE0C1knDn-1">
          <mxGeometry width="50" height="50" relative="1" as="geometry">
            <mxPoint x="200" y="300" as="sourcePoint" />
            <mxPoint x="200" y="360" as="targetPoint" />
          </mxGeometry>
        </mxCell>
        <mxCell id="IAzx4fVQ6igQfoRVBpJQ-19" value="" style="endArrow=none;html=1;rounded=0;" edge="1" parent="IASWtuJa9X0qE0C1knDn-1">
          <mxGeometry width="50" height="50" relative="1" as="geometry">
            <mxPoint x="200" y="360" as="sourcePoint" />
            <mxPoint x="220" y="360" as="targetPoint" />
          </mxGeometry>
        </mxCell>
        <mxCell id="IAzx4fVQ6igQfoRVBpJQ-20" value="" style="endArrow=none;html=1;rounded=0;" edge="1" parent="IASWtuJa9X0qE0C1knDn-1">
          <mxGeometry width="50" height="50" relative="1" as="geometry">
            <mxPoint x="220" y="370" as="sourcePoint" />
            <mxPoint x="250" y="360" as="targetPoint" />
          </mxGeometry>
        </mxCell>
        <mxCell id="IAzx4fVQ6igQfoRVBpJQ-21" value="" style="endArrow=none;html=1;rounded=0;" edge="1" parent="IASWtuJa9X0qE0C1knDn-1">
          <mxGeometry width="50" height="50" relative="1" as="geometry">
            <mxPoint x="220" y="330" as="sourcePoint" />
            <mxPoint x="250" y="320" as="targetPoint" />
          </mxGeometry>
        </mxCell>
        <mxCell id="IAzx4fVQ6igQfoRVBpJQ-22" value="" style="endArrow=none;html=1;rounded=0;" edge="1" parent="IASWtuJa9X0qE0C1knDn-1">
          <mxGeometry width="50" height="50" relative="1" as="geometry">
            <mxPoint x="200" y="320" as="sourcePoint" />
            <mxPoint x="220" y="320" as="targetPoint" />
          </mxGeometry>
        </mxCell>
        <mxCell id="IAzx4fVQ6igQfoRVBpJQ-23" value="" style="endArrow=none;html=1;rounded=0;exitX=0;exitY=0.5;exitDx=0;exitDy=0;" edge="1" parent="IASWtuJa9X0qE0C1knDn-1" source="IAzx4fVQ6igQfoRVBpJQ-3">
          <mxGeometry width="50" height="50" relative="1" as="geometry">
            <mxPoint x="210" y="330" as="sourcePoint" />
            <mxPoint x="250" y="320" as="targetPoint" />
          </mxGeometry>
        </mxCell>
        <mxCell id="IAzx4fVQ6igQfoRVBpJQ-24" value="" style="endArrow=none;html=1;rounded=0;exitX=0;exitY=0.5;exitDx=0;exitDy=0;" edge="1" parent="IASWtuJa9X0qE0C1knDn-1">
          <mxGeometry width="50" height="50" relative="1" as="geometry">
            <mxPoint x="290" y="359.8" as="sourcePoint" />
            <mxPoint x="250" y="359.8" as="targetPoint" />
          </mxGeometry>
        </mxCell>
      </root>
    </mxGraphModel>
  </diagram>
  <diagram name="4" id="m30nZAjfjWe5sX5zD-SI">
    <mxGraphModel dx="566" dy="385" grid="1" gridSize="10" guides="1" tooltips="1" connect="1" arrows="1" fold="1" page="1" pageScale="1" pageWidth="827" pageHeight="1169" math="1" shadow="0">
      <root>
        <mxCell id="88bmjrsXhbA5ZVS61tIk-0" />
        <mxCell id="88bmjrsXhbA5ZVS61tIk-1" parent="88bmjrsXhbA5ZVS61tIk-0" />
        <mxCell id="88bmjrsXhbA5ZVS61tIk-2" value="" style="endArrow=none;html=1;rounded=0;" edge="1" parent="88bmjrsXhbA5ZVS61tIk-1">
          <mxGeometry width="50" height="50" relative="1" as="geometry">
            <mxPoint x="120" y="320" as="sourcePoint" />
            <mxPoint x="120" y="120" as="targetPoint" />
          </mxGeometry>
        </mxCell>
        <mxCell id="88bmjrsXhbA5ZVS61tIk-3" value="" style="endArrow=none;html=1;rounded=0;" edge="1" parent="88bmjrsXhbA5ZVS61tIk-1">
          <mxGeometry width="50" height="50" relative="1" as="geometry">
            <mxPoint x="520" y="320" as="sourcePoint" />
            <mxPoint x="520" y="120" as="targetPoint" />
          </mxGeometry>
        </mxCell>
        <mxCell id="88bmjrsXhbA5ZVS61tIk-4" value="" style="endArrow=none;html=1;rounded=0;" edge="1" parent="88bmjrsXhbA5ZVS61tIk-1">
          <mxGeometry width="50" height="50" relative="1" as="geometry">
            <mxPoint x="120" y="179.57999999999998" as="sourcePoint" />
            <mxPoint x="280" y="179.57999999999998" as="targetPoint" />
          </mxGeometry>
        </mxCell>
        <mxCell id="88bmjrsXhbA5ZVS61tIk-6" value="" style="endArrow=none;html=1;rounded=0;" edge="1" parent="88bmjrsXhbA5ZVS61tIk-1">
          <mxGeometry width="50" height="50" relative="1" as="geometry">
            <mxPoint x="320" y="179.57999999999998" as="sourcePoint" />
            <mxPoint x="520" y="179.57999999999998" as="targetPoint" />
            <Array as="points">
              <mxPoint x="340" y="180" />
            </Array>
          </mxGeometry>
        </mxCell>
        <mxCell id="88bmjrsXhbA5ZVS61tIk-7" value="T" style="whiteSpace=wrap;html=1;aspect=fixed;" vertex="1" parent="88bmjrsXhbA5ZVS61tIk-1">
          <mxGeometry x="280" y="160" width="40" height="40" as="geometry" />
        </mxCell>
        <mxCell id="88bmjrsXhbA5ZVS61tIk-8" value="" style="endArrow=none;html=1;rounded=0;" edge="1" parent="88bmjrsXhbA5ZVS61tIk-1" source="88bmjrsXhbA5ZVS61tIk-10">
          <mxGeometry width="50" height="50" relative="1" as="geometry">
            <mxPoint x="120" y="260" as="sourcePoint" />
            <mxPoint x="300" y="260" as="targetPoint" />
          </mxGeometry>
        </mxCell>
        <mxCell id="88bmjrsXhbA5ZVS61tIk-11" value="" style="endArrow=none;html=1;rounded=0;entryX=0.5;entryY=1;entryDx=0;entryDy=0;" edge="1" parent="88bmjrsXhbA5ZVS61tIk-1" target="88bmjrsXhbA5ZVS61tIk-7">
          <mxGeometry width="50" height="50" relative="1" as="geometry">
            <mxPoint x="300" y="260" as="sourcePoint" />
            <mxPoint x="330" y="258" as="targetPoint" />
          </mxGeometry>
        </mxCell>
        <mxCell id="88bmjrsXhbA5ZVS61tIk-14" value="&lt;font style=&quot;font-size: 15px;&quot; face=&quot;Times New Roman&quot;&gt;-V&lt;/font&gt;" style="text;html=1;align=center;verticalAlign=middle;resizable=0;points=[];autosize=1;strokeColor=none;fillColor=none;" vertex="1" parent="88bmjrsXhbA5ZVS61tIk-1">
          <mxGeometry x="520" y="245" width="40" height="30" as="geometry" />
        </mxCell>
        <mxCell id="88bmjrsXhbA5ZVS61tIk-15" value="&lt;font style=&quot;font-size: 15px;&quot; face=&quot;Times New Roman&quot;&gt;+24V&lt;/font&gt;" style="text;html=1;align=center;verticalAlign=middle;resizable=0;points=[];autosize=1;strokeColor=none;fillColor=none;" vertex="1" parent="88bmjrsXhbA5ZVS61tIk-1">
          <mxGeometry x="70" y="248" width="60" height="30" as="geometry" />
        </mxCell>
        <mxCell id="zZ50g6O8XINx6jpp7Bp7-1" value="" style="endArrow=none;html=1;rounded=0;" edge="1" parent="88bmjrsXhbA5ZVS61tIk-1" target="88bmjrsXhbA5ZVS61tIk-10">
          <mxGeometry width="50" height="50" relative="1" as="geometry">
            <mxPoint x="120" y="260" as="sourcePoint" />
            <mxPoint x="280" y="260" as="targetPoint" />
          </mxGeometry>
        </mxCell>
        <mxCell id="88bmjrsXhbA5ZVS61tIk-10" value="" style="verticalLabelPosition=bottom;verticalAlign=top;html=1;shape=mxgraph.flowchart.or;" vertex="1" parent="88bmjrsXhbA5ZVS61tIk-1">
          <mxGeometry x="200" y="240" width="40" height="40" as="geometry" />
        </mxCell>
      </root>
    </mxGraphModel>
  </diagram>
  <diagram id="KDg4iueJxwLLMqmH0MoR" name="ページ5">
    <mxGraphModel dx="684" dy="465" grid="1" gridSize="10" guides="1" tooltips="1" connect="1" arrows="1" fold="1" page="1" pageScale="1" pageWidth="827" pageHeight="1169" math="1" shadow="0">
      <root>
        <mxCell id="0" />
        <mxCell id="1" parent="0" />
        <mxCell id="qetLYxtZpbxt0tEaXBBG-1" value="" style="group" vertex="1" connectable="0" parent="1">
          <mxGeometry x="280" y="280" width="80" height="160" as="geometry" />
        </mxCell>
        <mxCell id="qetLYxtZpbxt0tEaXBBG-2" value="P&lt;div&gt;L&lt;/div&gt;&lt;div&gt;C&lt;/div&gt;" style="rounded=0;whiteSpace=wrap;html=1;" vertex="1" parent="qetLYxtZpbxt0tEaXBBG-1">
          <mxGeometry width="80" height="160" as="geometry" />
        </mxCell>
        <mxCell id="qetLYxtZpbxt0tEaXBBG-3" value="IN" style="rounded=0;whiteSpace=wrap;html=1;" vertex="1" parent="qetLYxtZpbxt0tEaXBBG-1">
          <mxGeometry x="10" y="10" width="20" height="20" as="geometry" />
        </mxCell>
        <mxCell id="qetLYxtZpbxt0tEaXBBG-5" value="00" style="rounded=0;whiteSpace=wrap;html=1;" vertex="1" parent="qetLYxtZpbxt0tEaXBBG-1">
          <mxGeometry x="10" y="50" width="20" height="20" as="geometry" />
        </mxCell>
        <mxCell id="qetLYxtZpbxt0tEaXBBG-6" value="01" style="rounded=0;whiteSpace=wrap;html=1;" vertex="1" parent="qetLYxtZpbxt0tEaXBBG-1">
          <mxGeometry x="10" y="70" width="20" height="20" as="geometry" />
        </mxCell>
        <mxCell id="qetLYxtZpbxt0tEaXBBG-7" value="03" style="rounded=0;whiteSpace=wrap;html=1;" vertex="1" parent="qetLYxtZpbxt0tEaXBBG-1">
          <mxGeometry x="10" y="90" width="20" height="20" as="geometry" />
        </mxCell>
        <mxCell id="qetLYxtZpbxt0tEaXBBG-9" value="out" style="rounded=0;whiteSpace=wrap;html=1;" vertex="1" parent="qetLYxtZpbxt0tEaXBBG-1">
          <mxGeometry x="50" y="10" width="20" height="20" as="geometry" />
        </mxCell>
        <mxCell id="qetLYxtZpbxt0tEaXBBG-10" value="com" style="rounded=0;whiteSpace=wrap;html=1;" vertex="1" parent="qetLYxtZpbxt0tEaXBBG-1">
          <mxGeometry x="50" y="30" width="20" height="20" as="geometry" />
        </mxCell>
        <mxCell id="qetLYxtZpbxt0tEaXBBG-11" value="00" style="rounded=0;whiteSpace=wrap;html=1;" vertex="1" parent="qetLYxtZpbxt0tEaXBBG-1">
          <mxGeometry x="50" y="50" width="20" height="20" as="geometry" />
        </mxCell>
        <mxCell id="qetLYxtZpbxt0tEaXBBG-12" value="com" style="rounded=0;whiteSpace=wrap;html=1;" vertex="1" parent="qetLYxtZpbxt0tEaXBBG-1">
          <mxGeometry x="50" y="70" width="20" height="20" as="geometry" />
        </mxCell>
        <mxCell id="qetLYxtZpbxt0tEaXBBG-13" value="01" style="rounded=0;whiteSpace=wrap;html=1;" vertex="1" parent="qetLYxtZpbxt0tEaXBBG-1">
          <mxGeometry x="50" y="90" width="20" height="20" as="geometry" />
        </mxCell>
        <mxCell id="qetLYxtZpbxt0tEaXBBG-31" value="com" style="rounded=0;whiteSpace=wrap;html=1;" vertex="1" parent="qetLYxtZpbxt0tEaXBBG-1">
          <mxGeometry x="50" y="110" width="20" height="20" as="geometry" />
        </mxCell>
        <mxCell id="qetLYxtZpbxt0tEaXBBG-32" value="02" style="rounded=0;whiteSpace=wrap;html=1;" vertex="1" parent="qetLYxtZpbxt0tEaXBBG-1">
          <mxGeometry x="50" y="130" width="20" height="20" as="geometry" />
        </mxCell>
        <mxCell id="qetLYxtZpbxt0tEaXBBG-33" value="com" style="rounded=0;whiteSpace=wrap;html=1;" vertex="1" parent="qetLYxtZpbxt0tEaXBBG-1">
          <mxGeometry x="10" y="30" width="20" height="20" as="geometry" />
        </mxCell>
        <mxCell id="qetLYxtZpbxt0tEaXBBG-14" value="" style="endArrow=none;html=1;rounded=0;" edge="1" parent="1">
          <mxGeometry width="50" height="50" relative="1" as="geometry">
            <mxPoint x="120" y="440" as="sourcePoint" />
            <mxPoint x="120" y="240" as="targetPoint" />
          </mxGeometry>
        </mxCell>
        <mxCell id="qetLYxtZpbxt0tEaXBBG-15" value="" style="endArrow=none;html=1;rounded=0;" edge="1" parent="1">
          <mxGeometry width="50" height="50" relative="1" as="geometry">
            <mxPoint x="600" y="440" as="sourcePoint" />
            <mxPoint x="600" y="240" as="targetPoint" />
          </mxGeometry>
        </mxCell>
        <mxCell id="qetLYxtZpbxt0tEaXBBG-16" value="" style="endArrow=none;html=1;rounded=0;entryX=1;entryY=0.5;entryDx=0;entryDy=0;endFill=0;startArrow=none;startFill=0;" edge="1" parent="1" target="qetLYxtZpbxt0tEaXBBG-12">
          <mxGeometry width="50" height="50" relative="1" as="geometry">
            <mxPoint x="120" y="260" as="sourcePoint" />
            <mxPoint x="280" y="260" as="targetPoint" />
            <Array as="points">
              <mxPoint x="400" y="260" />
              <mxPoint x="400" y="320" />
              <mxPoint x="400" y="360" />
            </Array>
          </mxGeometry>
        </mxCell>
        <mxCell id="qetLYxtZpbxt0tEaXBBG-17" value="" style="endArrow=none;html=1;rounded=0;" edge="1" parent="1" source="qetLYxtZpbxt0tEaXBBG-34">
          <mxGeometry width="50" height="50" relative="1" as="geometry">
            <mxPoint x="350" y="420" as="sourcePoint" />
            <mxPoint x="600" y="420" as="targetPoint" />
          </mxGeometry>
        </mxCell>
        <mxCell id="qetLYxtZpbxt0tEaXBBG-18" value="" style="verticalLabelPosition=bottom;verticalAlign=top;html=1;shape=mxgraph.flowchart.or;" vertex="1" parent="1">
          <mxGeometry x="490" y="360" width="40" height="40" as="geometry" />
        </mxCell>
        <mxCell id="qetLYxtZpbxt0tEaXBBG-19" value="&lt;font style=&quot;font-size: 15px;&quot; face=&quot;Times New Roman&quot;&gt;L3&lt;/font&gt;" style="text;html=1;align=center;verticalAlign=middle;resizable=0;points=[];autosize=1;strokeColor=none;fillColor=none;" vertex="1" parent="1">
          <mxGeometry x="525" y="390" width="40" height="30" as="geometry" />
        </mxCell>
        <mxCell id="qetLYxtZpbxt0tEaXBBG-20" value="&lt;font style=&quot;font-size: 15px;&quot; face=&quot;Times New Roman&quot;&gt;-V&lt;/font&gt;" style="text;html=1;align=center;verticalAlign=middle;resizable=0;points=[];autosize=1;strokeColor=none;fillColor=none;" vertex="1" parent="1">
          <mxGeometry x="600" y="245" width="40" height="30" as="geometry" />
        </mxCell>
        <mxCell id="qetLYxtZpbxt0tEaXBBG-21" value="&lt;font style=&quot;font-size: 15px;&quot; face=&quot;Times New Roman&quot;&gt;+24V&lt;/font&gt;" style="text;html=1;align=center;verticalAlign=middle;resizable=0;points=[];autosize=1;strokeColor=none;fillColor=none;" vertex="1" parent="1">
          <mxGeometry x="70" y="248" width="60" height="30" as="geometry" />
        </mxCell>
        <mxCell id="qetLYxtZpbxt0tEaXBBG-22" value="" style="endArrow=none;html=1;rounded=0;startArrow=oval;startFill=1;" edge="1" parent="1">
          <mxGeometry width="50" height="50" relative="1" as="geometry">
            <mxPoint x="400" y="320" as="sourcePoint" />
            <mxPoint x="350" y="320" as="targetPoint" />
          </mxGeometry>
        </mxCell>
        <mxCell id="qetLYxtZpbxt0tEaXBBG-24" value="" style="endArrow=none;html=1;rounded=0;" edge="1" parent="1">
          <mxGeometry width="50" height="50" relative="1" as="geometry">
            <mxPoint x="200" y="340" as="sourcePoint" />
            <mxPoint x="200" y="450" as="targetPoint" />
          </mxGeometry>
        </mxCell>
        <mxCell id="qetLYxtZpbxt0tEaXBBG-25" value="" style="endArrow=none;html=1;rounded=0;" edge="1" parent="1">
          <mxGeometry width="50" height="50" relative="1" as="geometry">
            <mxPoint x="200" y="360" as="sourcePoint" />
            <mxPoint x="220" y="360" as="targetPoint" />
          </mxGeometry>
        </mxCell>
        <mxCell id="qetLYxtZpbxt0tEaXBBG-26" value="" style="endArrow=none;html=1;rounded=0;" edge="1" parent="1">
          <mxGeometry width="50" height="50" relative="1" as="geometry">
            <mxPoint x="220" y="360" as="sourcePoint" />
            <mxPoint x="250" y="350" as="targetPoint" />
          </mxGeometry>
        </mxCell>
        <mxCell id="qetLYxtZpbxt0tEaXBBG-27" value="" style="endArrow=none;html=1;rounded=0;" edge="1" parent="1">
          <mxGeometry width="50" height="50" relative="1" as="geometry">
            <mxPoint x="220" y="380" as="sourcePoint" />
            <mxPoint x="250" y="370" as="targetPoint" />
          </mxGeometry>
        </mxCell>
        <mxCell id="qetLYxtZpbxt0tEaXBBG-28" value="" style="endArrow=none;html=1;rounded=0;" edge="1" parent="1">
          <mxGeometry width="50" height="50" relative="1" as="geometry">
            <mxPoint x="200" y="340" as="sourcePoint" />
            <mxPoint x="220" y="340" as="targetPoint" />
          </mxGeometry>
        </mxCell>
        <mxCell id="qetLYxtZpbxt0tEaXBBG-29" value="" style="endArrow=none;html=1;rounded=0;exitX=0;exitY=0.5;exitDx=0;exitDy=0;" edge="1" parent="1">
          <mxGeometry width="50" height="50" relative="1" as="geometry">
            <mxPoint x="290" y="340" as="sourcePoint" />
            <mxPoint x="250" y="340" as="targetPoint" />
          </mxGeometry>
        </mxCell>
        <mxCell id="qetLYxtZpbxt0tEaXBBG-30" value="" style="endArrow=none;html=1;rounded=0;exitX=0;exitY=0.5;exitDx=0;exitDy=0;" edge="1" parent="1">
          <mxGeometry width="50" height="50" relative="1" as="geometry">
            <mxPoint x="290" y="359.8" as="sourcePoint" />
            <mxPoint x="250" y="359.8" as="targetPoint" />
          </mxGeometry>
        </mxCell>
        <mxCell id="qetLYxtZpbxt0tEaXBBG-35" style="edgeStyle=orthogonalEdgeStyle;rounded=0;orthogonalLoop=1;jettySize=auto;html=1;entryX=0;entryY=0.5;entryDx=0;entryDy=0;entryPerimeter=0;endArrow=none;endFill=0;" edge="1" parent="1" source="qetLYxtZpbxt0tEaXBBG-13" target="qetLYxtZpbxt0tEaXBBG-18">
          <mxGeometry relative="1" as="geometry" />
        </mxCell>
        <mxCell id="qetLYxtZpbxt0tEaXBBG-36" value="" style="endArrow=oval;html=1;rounded=0;exitX=1;exitY=0.5;exitDx=0;exitDy=0;endFill=1;" edge="1" parent="1" source="qetLYxtZpbxt0tEaXBBG-31">
          <mxGeometry width="50" height="50" relative="1" as="geometry">
            <mxPoint x="340" y="380" as="sourcePoint" />
            <mxPoint x="400" y="360" as="targetPoint" />
            <Array as="points">
              <mxPoint x="400" y="400" />
            </Array>
          </mxGeometry>
        </mxCell>
        <mxCell id="qetLYxtZpbxt0tEaXBBG-37" value="" style="endArrow=none;html=1;rounded=0;exitX=0;exitY=0.5;exitDx=0;exitDy=0;" edge="1" parent="1">
          <mxGeometry width="50" height="50" relative="1" as="geometry">
            <mxPoint x="290" y="379.76" as="sourcePoint" />
            <mxPoint x="250" y="379.76" as="targetPoint" />
          </mxGeometry>
        </mxCell>
        <mxCell id="qetLYxtZpbxt0tEaXBBG-38" value="" style="endArrow=none;html=1;rounded=0;" edge="1" parent="1">
          <mxGeometry width="50" height="50" relative="1" as="geometry">
            <mxPoint x="220" y="340" as="sourcePoint" />
            <mxPoint x="250" y="330" as="targetPoint" />
          </mxGeometry>
        </mxCell>
        <mxCell id="qetLYxtZpbxt0tEaXBBG-39" value="" style="endArrow=none;html=1;rounded=0;" edge="1" parent="1">
          <mxGeometry width="50" height="50" relative="1" as="geometry">
            <mxPoint x="200" y="360" as="sourcePoint" />
            <mxPoint x="220" y="379.76" as="targetPoint" />
            <Array as="points">
              <mxPoint x="200" y="380" />
            </Array>
          </mxGeometry>
        </mxCell>
        <mxCell id="qetLYxtZpbxt0tEaXBBG-40" value="3&amp;nbsp; &amp;nbsp; &amp;nbsp;4" style="text;html=1;align=center;verticalAlign=middle;resizable=0;points=[];autosize=1;strokeColor=none;fillColor=none;" vertex="1" parent="1">
          <mxGeometry x="210" y="370" width="50" height="30" as="geometry" />
        </mxCell>
        <mxCell id="qetLYxtZpbxt0tEaXBBG-41" value="3&amp;nbsp; &amp;nbsp; &amp;nbsp;4" style="text;html=1;align=center;verticalAlign=middle;resizable=0;points=[];autosize=1;strokeColor=none;fillColor=none;" vertex="1" parent="1">
          <mxGeometry x="210" y="350" width="50" height="30" as="geometry" />
        </mxCell>
        <mxCell id="qetLYxtZpbxt0tEaXBBG-42" value="3&amp;nbsp; &amp;nbsp; &amp;nbsp;4" style="text;html=1;align=center;verticalAlign=middle;resizable=0;points=[];autosize=1;strokeColor=none;fillColor=none;" vertex="1" parent="1">
          <mxGeometry x="210" y="330" width="50" height="30" as="geometry" />
        </mxCell>
        <mxCell id="qetLYxtZpbxt0tEaXBBG-43" value="NO" style="text;html=1;align=center;verticalAlign=middle;resizable=0;points=[];autosize=1;strokeColor=none;fillColor=none;" vertex="1" parent="1">
          <mxGeometry x="215" y="310" width="40" height="30" as="geometry" />
        </mxCell>
        <mxCell id="qetLYxtZpbxt0tEaXBBG-44" value="" style="verticalLabelPosition=bottom;verticalAlign=top;html=1;shape=mxgraph.flowchart.or;" vertex="1" parent="1">
          <mxGeometry x="490" y="320" width="40" height="40" as="geometry" />
        </mxCell>
        <mxCell id="qetLYxtZpbxt0tEaXBBG-45" style="edgeStyle=orthogonalEdgeStyle;rounded=0;orthogonalLoop=1;jettySize=auto;html=1;entryX=0;entryY=0.5;entryDx=0;entryDy=0;entryPerimeter=0;endArrow=none;endFill=0;" edge="1" parent="1">
          <mxGeometry relative="1" as="geometry">
            <mxPoint x="350" y="339.8" as="sourcePoint" />
            <mxPoint x="490" y="339.8" as="targetPoint" />
          </mxGeometry>
        </mxCell>
        <mxCell id="qetLYxtZpbxt0tEaXBBG-46" value="&lt;font style=&quot;font-size: 15px;&quot; face=&quot;Times New Roman&quot;&gt;L2&lt;/font&gt;" style="text;html=1;align=center;verticalAlign=middle;resizable=0;points=[];autosize=1;strokeColor=none;fillColor=none;" vertex="1" parent="1">
          <mxGeometry x="525" y="350" width="40" height="30" as="geometry" />
        </mxCell>
        <mxCell id="qetLYxtZpbxt0tEaXBBG-47" value="&lt;font style=&quot;font-size: 15px;&quot; face=&quot;Times New Roman&quot;&gt;L1&lt;/font&gt;" style="text;html=1;align=center;verticalAlign=middle;resizable=0;points=[];autosize=1;strokeColor=none;fillColor=none;" vertex="1" parent="1">
          <mxGeometry x="525" y="310" width="40" height="30" as="geometry" />
        </mxCell>
        <mxCell id="qetLYxtZpbxt0tEaXBBG-48" value="" style="endArrow=none;html=1;rounded=0;" edge="1" parent="1" target="qetLYxtZpbxt0tEaXBBG-34">
          <mxGeometry width="50" height="50" relative="1" as="geometry">
            <mxPoint x="350" y="420" as="sourcePoint" />
            <mxPoint x="600" y="420" as="targetPoint" />
          </mxGeometry>
        </mxCell>
        <mxCell id="qetLYxtZpbxt0tEaXBBG-34" value="" style="verticalLabelPosition=bottom;verticalAlign=top;html=1;shape=mxgraph.flowchart.or;" vertex="1" parent="1">
          <mxGeometry x="490" y="400" width="40" height="40" as="geometry" />
        </mxCell>
        <mxCell id="qetLYxtZpbxt0tEaXBBG-49" value="" style="endArrow=none;html=1;rounded=0;" edge="1" parent="1">
          <mxGeometry width="50" height="50" relative="1" as="geometry">
            <mxPoint x="530" y="380" as="sourcePoint" />
            <mxPoint x="600" y="380" as="targetPoint" />
          </mxGeometry>
        </mxCell>
        <mxCell id="qetLYxtZpbxt0tEaXBBG-50" value="" style="endArrow=none;html=1;rounded=0;" edge="1" parent="1">
          <mxGeometry width="50" height="50" relative="1" as="geometry">
            <mxPoint x="530" y="339.6" as="sourcePoint" />
            <mxPoint x="600" y="339.6" as="targetPoint" />
          </mxGeometry>
        </mxCell>
        <mxCell id="qetLYxtZpbxt0tEaXBBG-8" style="edgeStyle=orthogonalEdgeStyle;rounded=0;orthogonalLoop=1;jettySize=auto;html=1;endArrow=none;endFill=0;" edge="1" parent="1">
          <mxGeometry relative="1" as="geometry">
            <mxPoint x="600" y="359.5" as="targetPoint" />
            <mxPoint x="200" y="449.5" as="sourcePoint" />
            <Array as="points">
              <mxPoint x="200" y="450.5" />
              <mxPoint x="600" y="450.5" />
            </Array>
          </mxGeometry>
        </mxCell>
      </root>
    </mxGraphModel>
  </diagram>
  <diagram id="ki55NZyFoEjBS09v9QEc" name="ページ6">
    <mxGraphModel dx="683" dy="401" grid="1" gridSize="10" guides="1" tooltips="1" connect="1" arrows="1" fold="1" page="1" pageScale="1" pageWidth="827" pageHeight="1169" math="0" shadow="0">
      <root>
        <mxCell id="0" />
        <mxCell id="1" parent="0" />
        <mxCell id="Apu34-0XeV7VMhvyKvf6-15" value="コンベア３段目" style="rounded=0;whiteSpace=wrap;html=1;" vertex="1" parent="1">
          <mxGeometry x="240" y="200" width="160" height="40" as="geometry" />
        </mxCell>
        <mxCell id="Apu34-0XeV7VMhvyKvf6-16" value="コンベア２段目" style="rounded=0;whiteSpace=wrap;html=1;rotation=-90;" vertex="1" parent="1">
          <mxGeometry x="260" y="300" width="160" height="40" as="geometry" />
        </mxCell>
        <mxCell id="Apu34-0XeV7VMhvyKvf6-17" value="コンベア１段目" style="rounded=0;whiteSpace=wrap;html=1;" vertex="1" parent="1">
          <mxGeometry x="160" y="320" width="160" height="40" as="geometry" />
        </mxCell>
        <mxCell id="Apu34-0XeV7VMhvyKvf6-18" value="" style="ellipse;whiteSpace=wrap;html=1;aspect=fixed;fillColor=#FFFF00;strokeColor=#d6b656;" vertex="1" parent="1">
          <mxGeometry x="160" y="300" width="20" height="20" as="geometry" />
        </mxCell>
        <mxCell id="Apu34-0XeV7VMhvyKvf6-19" value="" style="ellipse;whiteSpace=wrap;html=1;aspect=fixed;fillColor=#FFFF00;strokeColor=#d6b656;" vertex="1" parent="1">
          <mxGeometry x="360" y="380" width="20" height="20" as="geometry" />
        </mxCell>
        <mxCell id="Apu34-0XeV7VMhvyKvf6-20" value="" style="ellipse;whiteSpace=wrap;html=1;aspect=fixed;fillColor=#FFFF00;strokeColor=#d6b656;" vertex="1" parent="1">
          <mxGeometry x="240" y="180" width="20" height="20" as="geometry" />
        </mxCell>
        <mxCell id="Apu34-0XeV7VMhvyKvf6-21" value="" style="ellipse;whiteSpace=wrap;html=1;aspect=fixed;fontStyle=1;fillColor=#FFFF00;strokeColor=#d6b656;" vertex="1" parent="1">
          <mxGeometry x="380" y="180" width="20" height="20" as="geometry" />
        </mxCell>
        <mxCell id="Apu34-0XeV7VMhvyKvf6-22" value="" style="ellipse;whiteSpace=wrap;html=1;aspect=fixed;fontStyle=1;fillColor=#f8cecc;strokeColor=#b85450;" vertex="1" parent="1">
          <mxGeometry x="290" y="300" width="20" height="20" as="geometry" />
        </mxCell>
        <mxCell id="Apu34-0XeV7VMhvyKvf6-23" value="金属センサ" style="text;html=1;align=center;verticalAlign=middle;resizable=0;points=[];autosize=1;strokeColor=none;fillColor=none;" vertex="1" parent="1">
          <mxGeometry x="240" y="280" width="80" height="30" as="geometry" />
        </mxCell>
        <mxCell id="Apu34-0XeV7VMhvyKvf6-24" value="光電センサ" style="text;html=1;align=center;verticalAlign=middle;resizable=0;points=[];autosize=1;strokeColor=none;fillColor=none;" vertex="1" parent="1">
          <mxGeometry x="110" y="278" width="80" height="30" as="geometry" />
        </mxCell>
      </root>
    </mxGraphModel>
  </diagram>
  <diagram id="Vd5daA6tKgHoyfnNo_6n" name="ページ7">
    <mxGraphModel dx="797" dy="468" grid="1" gridSize="10" guides="1" tooltips="1" connect="1" arrows="1" fold="1" page="1" pageScale="1" pageWidth="827" pageHeight="1169" math="0" shadow="0">
      <root>
        <mxCell id="0" />
        <mxCell id="1" parent="0" />
        <mxCell id="veU5fG6hP9FMkigDn5I2-1" value="モータ" style="rounded=0;whiteSpace=wrap;html=1;" vertex="1" parent="1">
          <mxGeometry x="320" y="360" width="80" height="120" as="geometry" />
        </mxCell>
        <mxCell id="veU5fG6hP9FMkigDn5I2-2" value="" style="rounded=0;whiteSpace=wrap;html=1;" vertex="1" parent="1">
          <mxGeometry x="345" y="320" width="30" height="40" as="geometry" />
        </mxCell>
        <mxCell id="veU5fG6hP9FMkigDn5I2-3" value="CW" style="text;html=1;align=center;verticalAlign=middle;resizable=0;points=[];autosize=1;strokeColor=none;fillColor=none;" vertex="1" parent="1">
          <mxGeometry x="340" y="290" width="40" height="30" as="geometry" />
        </mxCell>
        <mxCell id="veU5fG6hP9FMkigDn5I2-4" value="" style="pointerEvents=1;verticalLabelPosition=bottom;shadow=0;dashed=0;align=center;html=1;verticalAlign=top;shape=mxgraph.electrical.signal_sources.source;aspect=fixed;points=[[0.5,0,0],[1,0.5,0],[0.5,1,0],[0,0.5,0]];elSignalType=ac;" vertex="1" parent="1">
          <mxGeometry x="120" y="400" width="40" height="40" as="geometry" />
        </mxCell>
        <mxCell id="veU5fG6hP9FMkigDn5I2-5" value="" style="pointerEvents=1;verticalLabelPosition=bottom;shadow=0;dashed=0;align=center;html=1;verticalAlign=top;shape=mxgraph.electrical.plc_ladder.contact;" vertex="1" parent="1">
          <mxGeometry x="240" y="440" width="40" height="40" as="geometry" />
        </mxCell>
        <mxCell id="veU5fG6hP9FMkigDn5I2-6" value="" style="endArrow=none;html=1;rounded=0;exitX=1;exitY=0.5;exitDx=0;exitDy=0;exitPerimeter=0;entryX=0;entryY=0.833;entryDx=0;entryDy=0;entryPerimeter=0;" edge="1" parent="1" source="veU5fG6hP9FMkigDn5I2-5" target="veU5fG6hP9FMkigDn5I2-1">
          <mxGeometry width="50" height="50" relative="1" as="geometry">
            <mxPoint x="350" y="450" as="sourcePoint" />
            <mxPoint x="360" y="460" as="targetPoint" />
          </mxGeometry>
        </mxCell>
        <mxCell id="veU5fG6hP9FMkigDn5I2-7" value="" style="endArrow=none;html=1;rounded=0;" edge="1" parent="1">
          <mxGeometry width="50" height="50" relative="1" as="geometry">
            <mxPoint x="280" y="419.88" as="sourcePoint" />
            <mxPoint x="320" y="420" as="targetPoint" />
          </mxGeometry>
        </mxCell>
        <mxCell id="veU5fG6hP9FMkigDn5I2-8" value="" style="endArrow=none;html=1;rounded=0;entryX=-0.001;entryY=0.332;entryDx=0;entryDy=0;entryPerimeter=0;" edge="1" parent="1" target="veU5fG6hP9FMkigDn5I2-1">
          <mxGeometry width="50" height="50" relative="1" as="geometry">
            <mxPoint x="280" y="400" as="sourcePoint" />
            <mxPoint x="310" y="400" as="targetPoint" />
          </mxGeometry>
        </mxCell>
        <mxCell id="veU5fG6hP9FMkigDn5I2-9" value="" style="endArrow=none;html=1;rounded=0;entryX=-0.002;entryY=0.163;entryDx=0;entryDy=0;entryPerimeter=0;" edge="1" parent="1" target="veU5fG6hP9FMkigDn5I2-1">
          <mxGeometry width="50" height="50" relative="1" as="geometry">
            <mxPoint x="280" y="380" as="sourcePoint" />
            <mxPoint x="310" y="380" as="targetPoint" />
          </mxGeometry>
        </mxCell>
        <mxCell id="veU5fG6hP9FMkigDn5I2-10" style="edgeStyle=orthogonalEdgeStyle;rounded=0;orthogonalLoop=1;jettySize=auto;html=1;entryX=0.5;entryY=1;entryDx=0;entryDy=0;entryPerimeter=0;endArrow=none;endFill=0;" edge="1" parent="1" source="veU5fG6hP9FMkigDn5I2-5" target="veU5fG6hP9FMkigDn5I2-4">
          <mxGeometry relative="1" as="geometry" />
        </mxCell>
        <mxCell id="veU5fG6hP9FMkigDn5I2-11" value="" style="endArrow=none;html=1;rounded=0;endFill=0;startArrow=oval;startFill=1;" edge="1" parent="1">
          <mxGeometry width="50" height="50" relative="1" as="geometry">
            <mxPoint x="200" y="460" as="sourcePoint" />
            <mxPoint x="280" y="400" as="targetPoint" />
            <Array as="points">
              <mxPoint x="200" y="400" />
            </Array>
          </mxGeometry>
        </mxCell>
        <mxCell id="veU5fG6hP9FMkigDn5I2-12" value="" style="endArrow=none;html=1;rounded=0;exitX=0.5;exitY=0;exitDx=0;exitDy=0;exitPerimeter=0;" edge="1" parent="1" source="veU5fG6hP9FMkigDn5I2-4">
          <mxGeometry width="50" height="50" relative="1" as="geometry">
            <mxPoint x="250" y="420" as="sourcePoint" />
            <mxPoint x="280" y="380" as="targetPoint" />
            <Array as="points">
              <mxPoint x="140" y="380" />
            </Array>
          </mxGeometry>
        </mxCell>
        <mxCell id="veU5fG6hP9FMkigDn5I2-13" value="" style="endArrow=oval;startArrow=none;html=1;rounded=0;startFill=0;endFill=1;" edge="1" parent="1">
          <mxGeometry width="50" height="50" relative="1" as="geometry">
            <mxPoint x="280" y="420" as="sourcePoint" />
            <mxPoint x="260" y="380" as="targetPoint" />
            <Array as="points">
              <mxPoint x="260" y="420" />
            </Array>
          </mxGeometry>
        </mxCell>
        <mxCell id="veU5fG6hP9FMkigDn5I2-15" value="モータ" style="rounded=0;whiteSpace=wrap;html=1;" vertex="1" parent="1">
          <mxGeometry x="640" y="360" width="80" height="120" as="geometry" />
        </mxCell>
        <mxCell id="veU5fG6hP9FMkigDn5I2-16" value="" style="rounded=0;whiteSpace=wrap;html=1;" vertex="1" parent="1">
          <mxGeometry x="665" y="320" width="30" height="40" as="geometry" />
        </mxCell>
        <mxCell id="veU5fG6hP9FMkigDn5I2-17" value="CCW" style="text;html=1;align=center;verticalAlign=middle;resizable=0;points=[];autosize=1;strokeColor=none;fillColor=none;" vertex="1" parent="1">
          <mxGeometry x="655" y="290" width="50" height="30" as="geometry" />
        </mxCell>
        <mxCell id="veU5fG6hP9FMkigDn5I2-18" value="" style="pointerEvents=1;verticalLabelPosition=bottom;shadow=0;dashed=0;align=center;html=1;verticalAlign=top;shape=mxgraph.electrical.signal_sources.source;aspect=fixed;points=[[0.5,0,0],[1,0.5,0],[0.5,1,0],[0,0.5,0]];elSignalType=ac;" vertex="1" parent="1">
          <mxGeometry x="440" y="400" width="40" height="40" as="geometry" />
        </mxCell>
        <mxCell id="veU5fG6hP9FMkigDn5I2-19" value="" style="pointerEvents=1;verticalLabelPosition=bottom;shadow=0;dashed=0;align=center;html=1;verticalAlign=top;shape=mxgraph.electrical.plc_ladder.contact;" vertex="1" parent="1">
          <mxGeometry x="530" y="410" width="40" height="40" as="geometry" />
        </mxCell>
        <mxCell id="veU5fG6hP9FMkigDn5I2-20" value="" style="endArrow=none;html=1;rounded=0;entryX=0;entryY=0.833;entryDx=0;entryDy=0;entryPerimeter=0;endFill=0;startArrow=oval;startFill=1;" edge="1" parent="1" target="veU5fG6hP9FMkigDn5I2-15">
          <mxGeometry width="50" height="50" relative="1" as="geometry">
            <mxPoint x="600" y="380" as="sourcePoint" />
            <mxPoint x="680" y="460" as="targetPoint" />
            <Array as="points">
              <mxPoint x="600" y="460" />
            </Array>
          </mxGeometry>
        </mxCell>
        <mxCell id="veU5fG6hP9FMkigDn5I2-21" value="" style="endArrow=none;html=1;rounded=0;" edge="1" parent="1">
          <mxGeometry width="50" height="50" relative="1" as="geometry">
            <mxPoint x="600" y="419.88" as="sourcePoint" />
            <mxPoint x="640" y="420" as="targetPoint" />
          </mxGeometry>
        </mxCell>
        <mxCell id="veU5fG6hP9FMkigDn5I2-22" value="" style="endArrow=none;html=1;rounded=0;entryX=-0.001;entryY=0.332;entryDx=0;entryDy=0;entryPerimeter=0;" edge="1" parent="1" target="veU5fG6hP9FMkigDn5I2-15">
          <mxGeometry width="50" height="50" relative="1" as="geometry">
            <mxPoint x="600" y="400" as="sourcePoint" />
            <mxPoint x="630" y="400" as="targetPoint" />
          </mxGeometry>
        </mxCell>
        <mxCell id="veU5fG6hP9FMkigDn5I2-23" value="" style="endArrow=none;html=1;rounded=0;entryX=-0.002;entryY=0.163;entryDx=0;entryDy=0;entryPerimeter=0;" edge="1" parent="1" target="veU5fG6hP9FMkigDn5I2-15">
          <mxGeometry width="50" height="50" relative="1" as="geometry">
            <mxPoint x="600" y="380" as="sourcePoint" />
            <mxPoint x="630" y="380" as="targetPoint" />
          </mxGeometry>
        </mxCell>
        <mxCell id="veU5fG6hP9FMkigDn5I2-24" style="edgeStyle=orthogonalEdgeStyle;rounded=0;orthogonalLoop=1;jettySize=auto;html=1;entryX=0.5;entryY=1;entryDx=0;entryDy=0;entryPerimeter=0;endArrow=none;endFill=0;exitX=0;exitY=0.5;exitDx=0;exitDy=0;exitPerimeter=0;" edge="1" parent="1" source="veU5fG6hP9FMkigDn5I2-19" target="veU5fG6hP9FMkigDn5I2-18">
          <mxGeometry relative="1" as="geometry">
            <Array as="points">
              <mxPoint x="520" y="430" />
              <mxPoint x="520" y="460" />
              <mxPoint x="460" y="460" />
            </Array>
          </mxGeometry>
        </mxCell>
        <mxCell id="veU5fG6hP9FMkigDn5I2-25" value="" style="endArrow=none;html=1;rounded=0;endFill=0;startArrow=oval;startFill=1;" edge="1" parent="1">
          <mxGeometry width="50" height="50" relative="1" as="geometry">
            <mxPoint x="520" y="460" as="sourcePoint" />
            <mxPoint x="600" y="400" as="targetPoint" />
            <Array as="points">
              <mxPoint x="520" y="400" />
            </Array>
          </mxGeometry>
        </mxCell>
        <mxCell id="veU5fG6hP9FMkigDn5I2-26" value="" style="endArrow=none;html=1;rounded=0;exitX=0.5;exitY=0;exitDx=0;exitDy=0;exitPerimeter=0;" edge="1" parent="1" source="veU5fG6hP9FMkigDn5I2-18">
          <mxGeometry width="50" height="50" relative="1" as="geometry">
            <mxPoint x="570" y="420" as="sourcePoint" />
            <mxPoint x="600" y="380" as="targetPoint" />
            <Array as="points">
              <mxPoint x="460" y="380" />
            </Array>
          </mxGeometry>
        </mxCell>
        <mxCell id="veU5fG6hP9FMkigDn5I2-27" value="" style="endArrow=none;startArrow=none;html=1;rounded=0;startFill=0;endFill=0;entryX=1;entryY=0.5;entryDx=0;entryDy=0;entryPerimeter=0;" edge="1" parent="1" target="veU5fG6hP9FMkigDn5I2-19">
          <mxGeometry width="50" height="50" relative="1" as="geometry">
            <mxPoint x="600" y="420" as="sourcePoint" />
            <mxPoint x="580" y="380" as="targetPoint" />
            <Array as="points">
              <mxPoint x="580" y="420" />
              <mxPoint x="580" y="430" />
            </Array>
          </mxGeometry>
        </mxCell>
        <mxCell id="veU5fG6hP9FMkigDn5I2-28" value="青&lt;br&gt;黄&lt;br&gt;黒&lt;br&gt;白" style="text;html=1;align=center;verticalAlign=middle;resizable=0;points=[];autosize=1;strokeColor=none;fillColor=none;" vertex="1" parent="1">
          <mxGeometry x="630" y="385" width="40" height="70" as="geometry" />
        </mxCell>
        <mxCell id="veU5fG6hP9FMkigDn5I2-29" value="青&lt;br&gt;黄&lt;br&gt;黒&lt;br&gt;白" style="text;html=1;align=center;verticalAlign=middle;resizable=0;points=[];autosize=1;strokeColor=none;fillColor=none;" vertex="1" parent="1">
          <mxGeometry x="310" y="385" width="40" height="70" as="geometry" />
        </mxCell>
      </root>
    </mxGraphModel>
  </diagram>
  <diagram id="crZ90kxw7gdP0QxI-Vcv" name="ページ8">
    <mxGraphModel dx="683" dy="401" grid="1" gridSize="10" guides="1" tooltips="1" connect="1" arrows="1" fold="1" page="1" pageScale="1" pageWidth="827" pageHeight="1169" math="0" shadow="0">
      <root>
        <mxCell id="0" />
        <mxCell id="1" parent="0" />
        <mxCell id="Pyb9NQfUQKmxw2ySUtbR-1" value="モータ" style="rounded=0;whiteSpace=wrap;html=1;" vertex="1" parent="1">
          <mxGeometry x="440" y="360" width="80" height="120" as="geometry" />
        </mxCell>
        <mxCell id="Pyb9NQfUQKmxw2ySUtbR-2" value="" style="rounded=0;whiteSpace=wrap;html=1;" vertex="1" parent="1">
          <mxGeometry x="465" y="320" width="30" height="40" as="geometry" />
        </mxCell>
        <mxCell id="Pyb9NQfUQKmxw2ySUtbR-4" value="" style="pointerEvents=1;verticalLabelPosition=bottom;shadow=0;dashed=0;align=center;html=1;verticalAlign=top;shape=mxgraph.electrical.signal_sources.source;aspect=fixed;points=[[0.5,0,0],[1,0.5,0],[0.5,1,0],[0,0.5,0]];elSignalType=ac;" vertex="1" parent="1">
          <mxGeometry x="240" y="400" width="40" height="40" as="geometry" />
        </mxCell>
        <mxCell id="Pyb9NQfUQKmxw2ySUtbR-5" value="C" style="pointerEvents=1;verticalLabelPosition=bottom;shadow=0;dashed=0;align=center;html=1;verticalAlign=top;shape=mxgraph.electrical.plc_ladder.contact;" vertex="1" parent="1">
          <mxGeometry x="360" y="440" width="40" height="40" as="geometry" />
        </mxCell>
        <mxCell id="Pyb9NQfUQKmxw2ySUtbR-6" value="" style="endArrow=none;html=1;rounded=0;exitX=1;exitY=0.5;exitDx=0;exitDy=0;exitPerimeter=0;entryX=0;entryY=0.833;entryDx=0;entryDy=0;entryPerimeter=0;" edge="1" parent="1" source="Pyb9NQfUQKmxw2ySUtbR-5" target="Pyb9NQfUQKmxw2ySUtbR-1">
          <mxGeometry width="50" height="50" relative="1" as="geometry">
            <mxPoint x="470" y="450" as="sourcePoint" />
            <mxPoint x="480" y="460" as="targetPoint" />
          </mxGeometry>
        </mxCell>
        <mxCell id="Pyb9NQfUQKmxw2ySUtbR-7" value="" style="endArrow=none;html=1;rounded=0;" edge="1" parent="1">
          <mxGeometry width="50" height="50" relative="1" as="geometry">
            <mxPoint x="400" y="419.88" as="sourcePoint" />
            <mxPoint x="440" y="420" as="targetPoint" />
          </mxGeometry>
        </mxCell>
        <mxCell id="Pyb9NQfUQKmxw2ySUtbR-8" value="" style="endArrow=none;html=1;rounded=0;entryX=-0.001;entryY=0.332;entryDx=0;entryDy=0;entryPerimeter=0;" edge="1" parent="1" target="Pyb9NQfUQKmxw2ySUtbR-1">
          <mxGeometry width="50" height="50" relative="1" as="geometry">
            <mxPoint x="400" y="400" as="sourcePoint" />
            <mxPoint x="430" y="400" as="targetPoint" />
          </mxGeometry>
        </mxCell>
        <mxCell id="Pyb9NQfUQKmxw2ySUtbR-9" value="" style="endArrow=none;html=1;rounded=0;entryX=-0.002;entryY=0.163;entryDx=0;entryDy=0;entryPerimeter=0;" edge="1" parent="1" target="Pyb9NQfUQKmxw2ySUtbR-1">
          <mxGeometry width="50" height="50" relative="1" as="geometry">
            <mxPoint x="400" y="380" as="sourcePoint" />
            <mxPoint x="430" y="380" as="targetPoint" />
          </mxGeometry>
        </mxCell>
        <mxCell id="Pyb9NQfUQKmxw2ySUtbR-10" style="edgeStyle=orthogonalEdgeStyle;rounded=0;orthogonalLoop=1;jettySize=auto;html=1;entryX=0.5;entryY=1;entryDx=0;entryDy=0;entryPerimeter=0;endArrow=none;endFill=0;" edge="1" parent="1" source="Pyb9NQfUQKmxw2ySUtbR-5" target="Pyb9NQfUQKmxw2ySUtbR-4">
          <mxGeometry relative="1" as="geometry" />
        </mxCell>
        <mxCell id="Pyb9NQfUQKmxw2ySUtbR-11" value="" style="endArrow=none;html=1;rounded=0;endFill=0;startArrow=oval;startFill=1;" edge="1" parent="1">
          <mxGeometry width="50" height="50" relative="1" as="geometry">
            <mxPoint x="320" y="460" as="sourcePoint" />
            <mxPoint x="400" y="400" as="targetPoint" />
            <Array as="points">
              <mxPoint x="320" y="400" />
            </Array>
          </mxGeometry>
        </mxCell>
        <mxCell id="Pyb9NQfUQKmxw2ySUtbR-13" value="" style="endArrow=oval;startArrow=none;html=1;rounded=0;startFill=0;endFill=1;" edge="1" parent="1">
          <mxGeometry width="50" height="50" relative="1" as="geometry">
            <mxPoint x="400" y="420" as="sourcePoint" />
            <mxPoint x="380" y="380" as="targetPoint" />
            <Array as="points">
              <mxPoint x="380" y="420" />
            </Array>
          </mxGeometry>
        </mxCell>
        <mxCell id="Pyb9NQfUQKmxw2ySUtbR-14" value="青&lt;br&gt;黄&lt;br&gt;黒&lt;br&gt;白" style="text;html=1;align=center;verticalAlign=middle;resizable=0;points=[];autosize=1;strokeColor=none;fillColor=none;" vertex="1" parent="1">
          <mxGeometry x="430" y="385" width="40" height="70" as="geometry" />
        </mxCell>
        <mxCell id="Pyb9NQfUQKmxw2ySUtbR-15" value="" style="html=1;shape=mxgraph.electrical.electro-mechanical.singleSwitch;aspect=fixed;elSwitchState=off;" vertex="1" parent="1">
          <mxGeometry x="270" y="370" width="56.23" height="15" as="geometry" />
        </mxCell>
        <mxCell id="Pyb9NQfUQKmxw2ySUtbR-16" value="" style="endArrow=none;html=1;rounded=0;entryX=1;entryY=0.8;entryDx=0;entryDy=0;" edge="1" parent="1" target="Pyb9NQfUQKmxw2ySUtbR-15">
          <mxGeometry width="50" height="50" relative="1" as="geometry">
            <mxPoint x="400" y="380" as="sourcePoint" />
            <mxPoint x="350" y="380" as="targetPoint" />
          </mxGeometry>
        </mxCell>
        <mxCell id="Pyb9NQfUQKmxw2ySUtbR-19" value="" style="endArrow=none;html=1;rounded=0;entryX=0;entryY=0.8;entryDx=0;entryDy=0;exitX=0.5;exitY=0;exitDx=0;exitDy=0;exitPerimeter=0;" edge="1" parent="1" source="Pyb9NQfUQKmxw2ySUtbR-4" target="Pyb9NQfUQKmxw2ySUtbR-15">
          <mxGeometry width="50" height="50" relative="1" as="geometry">
            <mxPoint x="300" y="430" as="sourcePoint" />
            <mxPoint x="350" y="380" as="targetPoint" />
            <Array as="points">
              <mxPoint x="260" y="382" />
            </Array>
          </mxGeometry>
        </mxCell>
        <mxCell id="Pyb9NQfUQKmxw2ySUtbR-20" value="R1&lt;br&gt;9&amp;nbsp; &amp;nbsp; &amp;nbsp; &amp;nbsp; 5" style="text;html=1;align=center;verticalAlign=middle;resizable=0;points=[];autosize=1;strokeColor=none;fillColor=none;" vertex="1" parent="1">
          <mxGeometry x="270" y="333" width="60" height="40" as="geometry" />
        </mxCell>
      </root>
    </mxGraphModel>
  </diagram>
  <diagram id="qDAi89SlKFBn2vUfBWIY" name="ページ9">
    <mxGraphModel dx="683" dy="401" grid="1" gridSize="10" guides="1" tooltips="1" connect="1" arrows="1" fold="1" page="1" pageScale="1" pageWidth="827" pageHeight="1169" math="0" shadow="0">
      <root>
        <mxCell id="0" />
        <mxCell id="1" parent="0" />
        <mxCell id="fC8DeIe9171GxVjidYcP-1" value="モータ" style="rounded=0;whiteSpace=wrap;html=1;" vertex="1" parent="1">
          <mxGeometry x="600" y="360" width="80" height="120" as="geometry" />
        </mxCell>
        <mxCell id="fC8DeIe9171GxVjidYcP-2" value="" style="rounded=0;whiteSpace=wrap;html=1;" vertex="1" parent="1">
          <mxGeometry x="625" y="320" width="30" height="40" as="geometry" />
        </mxCell>
        <mxCell id="fC8DeIe9171GxVjidYcP-3" value="" style="pointerEvents=1;verticalLabelPosition=bottom;shadow=0;dashed=0;align=center;html=1;verticalAlign=top;shape=mxgraph.electrical.signal_sources.source;aspect=fixed;points=[[0.5,0,0],[1,0.5,0],[0.5,1,0],[0,0.5,0]];elSignalType=ac;" vertex="1" parent="1">
          <mxGeometry x="240" y="400" width="40" height="40" as="geometry" />
        </mxCell>
        <mxCell id="fC8DeIe9171GxVjidYcP-4" value="C" style="pointerEvents=1;verticalLabelPosition=bottom;shadow=0;dashed=0;align=center;html=1;verticalAlign=top;shape=mxgraph.electrical.plc_ladder.contact;" vertex="1" parent="1">
          <mxGeometry x="360" y="440" width="40" height="40" as="geometry" />
        </mxCell>
        <mxCell id="fC8DeIe9171GxVjidYcP-5" value="" style="endArrow=none;html=1;rounded=0;exitX=1;exitY=0.5;exitDx=0;exitDy=0;exitPerimeter=0;entryX=0;entryY=0.5;entryDx=0;entryDy=0;" edge="1" parent="1" source="fC8DeIe9171GxVjidYcP-4" target="fC8DeIe9171GxVjidYcP-17">
          <mxGeometry width="50" height="50" relative="1" as="geometry">
            <mxPoint x="470" y="450" as="sourcePoint" />
            <mxPoint x="480" y="460" as="targetPoint" />
          </mxGeometry>
        </mxCell>
        <mxCell id="fC8DeIe9171GxVjidYcP-7" value="" style="endArrow=none;html=1;rounded=0;entryX=-0.001;entryY=0.332;entryDx=0;entryDy=0;entryPerimeter=0;" edge="1" parent="1" target="fC8DeIe9171GxVjidYcP-1">
          <mxGeometry width="50" height="50" relative="1" as="geometry">
            <mxPoint x="400" y="400" as="sourcePoint" />
            <mxPoint x="430" y="400" as="targetPoint" />
          </mxGeometry>
        </mxCell>
        <mxCell id="fC8DeIe9171GxVjidYcP-8" value="" style="endArrow=none;html=1;rounded=0;entryX=-0.002;entryY=0.163;entryDx=0;entryDy=0;entryPerimeter=0;" edge="1" parent="1" target="fC8DeIe9171GxVjidYcP-1">
          <mxGeometry width="50" height="50" relative="1" as="geometry">
            <mxPoint x="400" y="380" as="sourcePoint" />
            <mxPoint x="430" y="380" as="targetPoint" />
          </mxGeometry>
        </mxCell>
        <mxCell id="fC8DeIe9171GxVjidYcP-9" style="edgeStyle=orthogonalEdgeStyle;rounded=0;orthogonalLoop=1;jettySize=auto;html=1;entryX=0.5;entryY=1;entryDx=0;entryDy=0;entryPerimeter=0;endArrow=none;endFill=0;" edge="1" parent="1" source="fC8DeIe9171GxVjidYcP-4" target="fC8DeIe9171GxVjidYcP-3">
          <mxGeometry relative="1" as="geometry" />
        </mxCell>
        <mxCell id="fC8DeIe9171GxVjidYcP-10" value="" style="endArrow=none;html=1;rounded=0;endFill=0;startArrow=oval;startFill=1;" edge="1" parent="1">
          <mxGeometry width="50" height="50" relative="1" as="geometry">
            <mxPoint x="320" y="460" as="sourcePoint" />
            <mxPoint x="400" y="400" as="targetPoint" />
            <Array as="points">
              <mxPoint x="320" y="400" />
            </Array>
          </mxGeometry>
        </mxCell>
        <mxCell id="fC8DeIe9171GxVjidYcP-12" value="青&lt;br&gt;黄&lt;br&gt;黒&lt;br&gt;白" style="text;html=1;align=center;verticalAlign=middle;resizable=0;points=[];autosize=1;strokeColor=none;fillColor=none;" vertex="1" parent="1">
          <mxGeometry x="590" y="373" width="40" height="70" as="geometry" />
        </mxCell>
        <mxCell id="fC8DeIe9171GxVjidYcP-13" value="" style="html=1;shape=mxgraph.electrical.electro-mechanical.singleSwitch;aspect=fixed;elSwitchState=off;" vertex="1" parent="1">
          <mxGeometry x="270" y="370" width="56.23" height="15" as="geometry" />
        </mxCell>
        <mxCell id="fC8DeIe9171GxVjidYcP-14" value="" style="endArrow=none;html=1;rounded=0;entryX=1;entryY=0.8;entryDx=0;entryDy=0;" edge="1" parent="1" target="fC8DeIe9171GxVjidYcP-13">
          <mxGeometry width="50" height="50" relative="1" as="geometry">
            <mxPoint x="400" y="380" as="sourcePoint" />
            <mxPoint x="350" y="380" as="targetPoint" />
          </mxGeometry>
        </mxCell>
        <mxCell id="fC8DeIe9171GxVjidYcP-15" value="" style="endArrow=none;html=1;rounded=0;entryX=0;entryY=0.8;entryDx=0;entryDy=0;exitX=0.5;exitY=0;exitDx=0;exitDy=0;exitPerimeter=0;" edge="1" parent="1" source="fC8DeIe9171GxVjidYcP-3" target="fC8DeIe9171GxVjidYcP-13">
          <mxGeometry width="50" height="50" relative="1" as="geometry">
            <mxPoint x="300" y="430" as="sourcePoint" />
            <mxPoint x="350" y="380" as="targetPoint" />
            <Array as="points">
              <mxPoint x="260" y="382" />
            </Array>
          </mxGeometry>
        </mxCell>
        <mxCell id="fC8DeIe9171GxVjidYcP-16" value="R1&lt;br&gt;9&amp;nbsp; &amp;nbsp; &amp;nbsp; &amp;nbsp; 5" style="text;html=1;align=center;verticalAlign=middle;resizable=0;points=[];autosize=1;strokeColor=none;fillColor=none;" vertex="1" parent="1">
          <mxGeometry x="270" y="333" width="60" height="40" as="geometry" />
        </mxCell>
        <mxCell id="fC8DeIe9171GxVjidYcP-17" value="" style="pointerEvents=1;verticalLabelPosition=bottom;shadow=0;dashed=0;align=center;html=1;verticalAlign=top;shape=mxgraph.electrical.electro-mechanical.twoWayContact2;elSwitchState=1;" vertex="1" parent="1">
          <mxGeometry x="400" y="600" width="80" height="40" as="geometry" />
        </mxCell>
        <mxCell id="fC8DeIe9171GxVjidYcP-20" value="" style="endArrow=none;html=1;rounded=0;exitX=1;exitY=0.075;exitDx=0;exitDy=0;exitPerimeter=0;entryX=0;entryY=0.5;entryDx=0;entryDy=0;" edge="1" parent="1" source="fC8DeIe9171GxVjidYcP-17" target="fC8DeIe9171GxVjidYcP-1">
          <mxGeometry width="50" height="50" relative="1" as="geometry">
            <mxPoint x="430" y="580" as="sourcePoint" />
            <mxPoint x="530" y="410" as="targetPoint" />
            <Array as="points">
              <mxPoint x="480" y="420" />
            </Array>
          </mxGeometry>
        </mxCell>
        <mxCell id="fC8DeIe9171GxVjidYcP-21" value="" style="endArrow=none;html=1;rounded=0;entryX=0.011;entryY=0.663;entryDx=0;entryDy=0;entryPerimeter=0;" edge="1" parent="1" target="fC8DeIe9171GxVjidYcP-1">
          <mxGeometry width="50" height="50" relative="1" as="geometry">
            <mxPoint x="480" y="640" as="sourcePoint" />
            <mxPoint x="520" y="440" as="targetPoint" />
            <Array as="points">
              <mxPoint x="520" y="640" />
              <mxPoint x="520" y="440" />
            </Array>
          </mxGeometry>
        </mxCell>
        <mxCell id="fC8DeIe9171GxVjidYcP-23" value="" style="pointerEvents=1;verticalLabelPosition=bottom;shadow=0;dashed=0;align=center;html=1;verticalAlign=top;shape=mxgraph.electrical.electro-mechanical.twoWayContact2;elSwitchState=2;" vertex="1" parent="1">
          <mxGeometry x="420" y="460" width="40" height="20" as="geometry" />
        </mxCell>
        <mxCell id="fC8DeIe9171GxVjidYcP-24" value="" style="endArrow=oval;html=1;rounded=0;exitX=0;exitY=0.5;exitDx=0;exitDy=0;startArrow=none;startFill=0;endFill=1;" edge="1" parent="1" source="fC8DeIe9171GxVjidYcP-23">
          <mxGeometry width="50" height="50" relative="1" as="geometry">
            <mxPoint x="510" y="510" as="sourcePoint" />
            <mxPoint x="420" y="380" as="targetPoint" />
          </mxGeometry>
        </mxCell>
        <mxCell id="fC8DeIe9171GxVjidYcP-25" value="" style="endArrow=oval;html=1;rounded=0;exitX=1;exitY=1;exitDx=0;exitDy=0;endFill=1;" edge="1" parent="1" source="fC8DeIe9171GxVjidYcP-23">
          <mxGeometry width="50" height="50" relative="1" as="geometry">
            <mxPoint x="510" y="510" as="sourcePoint" />
            <mxPoint x="520" y="480" as="targetPoint" />
          </mxGeometry>
        </mxCell>
        <mxCell id="fC8DeIe9171GxVjidYcP-26" value="" style="endArrow=oval;html=1;rounded=0;exitX=1;exitY=0;exitDx=0;exitDy=0;endFill=1;" edge="1" parent="1" source="fC8DeIe9171GxVjidYcP-23">
          <mxGeometry width="50" height="50" relative="1" as="geometry">
            <mxPoint x="510" y="510" as="sourcePoint" />
            <mxPoint x="480" y="460" as="targetPoint" />
          </mxGeometry>
        </mxCell>
        <mxCell id="fC8DeIe9171GxVjidYcP-27" value="R5" style="text;html=1;align=center;verticalAlign=middle;resizable=0;points=[];autosize=1;strokeColor=none;fillColor=none;" vertex="1" parent="1">
          <mxGeometry x="420" y="430" width="40" height="30" as="geometry" />
        </mxCell>
        <mxCell id="fC8DeIe9171GxVjidYcP-28" value="R5" style="text;html=1;align=center;verticalAlign=middle;resizable=0;points=[];autosize=1;strokeColor=none;fillColor=none;" vertex="1" parent="1">
          <mxGeometry x="400" y="580" width="40" height="30" as="geometry" />
        </mxCell>
      </root>
    </mxGraphModel>
  </diagram>
  <diagram id="ZRhBC9UGH-JLW6yivRsP" name="ページ10">
    <mxGraphModel dx="398" dy="234" grid="1" gridSize="10" guides="1" tooltips="1" connect="1" arrows="1" fold="1" page="1" pageScale="1" pageWidth="827" pageHeight="1169" math="0" shadow="0">
      <root>
        <mxCell id="0" />
        <mxCell id="1" parent="0" />
        <mxCell id="-d-8ak7Yx_gB2rP6RjXS-1" value="モータ" style="rounded=0;whiteSpace=wrap;html=1;" vertex="1" parent="1">
          <mxGeometry x="600" y="360" width="80" height="120" as="geometry" />
        </mxCell>
        <mxCell id="-d-8ak7Yx_gB2rP6RjXS-2" value="" style="rounded=0;whiteSpace=wrap;html=1;" vertex="1" parent="1">
          <mxGeometry x="625" y="320" width="30" height="40" as="geometry" />
        </mxCell>
        <mxCell id="-d-8ak7Yx_gB2rP6RjXS-3" value="" style="pointerEvents=1;verticalLabelPosition=bottom;shadow=0;dashed=0;align=center;html=1;verticalAlign=top;shape=mxgraph.electrical.signal_sources.source;aspect=fixed;points=[[0.5,0,0],[1,0.5,0],[0.5,1,0],[0,0.5,0]];elSignalType=ac;" vertex="1" parent="1">
          <mxGeometry x="240" y="400" width="40" height="40" as="geometry" />
        </mxCell>
        <mxCell id="-d-8ak7Yx_gB2rP6RjXS-4" value="C" style="pointerEvents=1;verticalLabelPosition=bottom;shadow=0;dashed=0;align=center;html=1;verticalAlign=top;shape=mxgraph.electrical.plc_ladder.contact;" vertex="1" parent="1">
          <mxGeometry x="360" y="440" width="40" height="40" as="geometry" />
        </mxCell>
        <mxCell id="-d-8ak7Yx_gB2rP6RjXS-5" value="" style="endArrow=none;html=1;rounded=0;exitX=1;exitY=0.5;exitDx=0;exitDy=0;exitPerimeter=0;entryX=0;entryY=0.5;entryDx=0;entryDy=0;" edge="1" parent="1" source="-d-8ak7Yx_gB2rP6RjXS-4">
          <mxGeometry width="50" height="50" relative="1" as="geometry">
            <mxPoint x="470" y="450" as="sourcePoint" />
            <mxPoint x="400" y="620" as="targetPoint" />
          </mxGeometry>
        </mxCell>
        <mxCell id="-d-8ak7Yx_gB2rP6RjXS-6" value="" style="endArrow=none;html=1;rounded=0;entryX=-0.001;entryY=0.332;entryDx=0;entryDy=0;entryPerimeter=0;" edge="1" parent="1" target="-d-8ak7Yx_gB2rP6RjXS-1">
          <mxGeometry width="50" height="50" relative="1" as="geometry">
            <mxPoint x="400" y="400" as="sourcePoint" />
            <mxPoint x="430" y="400" as="targetPoint" />
          </mxGeometry>
        </mxCell>
        <mxCell id="-d-8ak7Yx_gB2rP6RjXS-7" value="" style="endArrow=none;html=1;rounded=0;entryX=-0.002;entryY=0.163;entryDx=0;entryDy=0;entryPerimeter=0;" edge="1" parent="1" target="-d-8ak7Yx_gB2rP6RjXS-1">
          <mxGeometry width="50" height="50" relative="1" as="geometry">
            <mxPoint x="400" y="380" as="sourcePoint" />
            <mxPoint x="430" y="380" as="targetPoint" />
          </mxGeometry>
        </mxCell>
        <mxCell id="-d-8ak7Yx_gB2rP6RjXS-8" style="edgeStyle=orthogonalEdgeStyle;rounded=0;orthogonalLoop=1;jettySize=auto;html=1;entryX=0.5;entryY=1;entryDx=0;entryDy=0;entryPerimeter=0;endArrow=none;endFill=0;" edge="1" parent="1" source="-d-8ak7Yx_gB2rP6RjXS-4" target="-d-8ak7Yx_gB2rP6RjXS-3">
          <mxGeometry relative="1" as="geometry" />
        </mxCell>
        <mxCell id="-d-8ak7Yx_gB2rP6RjXS-9" value="" style="endArrow=none;html=1;rounded=0;endFill=0;startArrow=oval;startFill=1;" edge="1" parent="1">
          <mxGeometry width="50" height="50" relative="1" as="geometry">
            <mxPoint x="320" y="460" as="sourcePoint" />
            <mxPoint x="400" y="400" as="targetPoint" />
            <Array as="points">
              <mxPoint x="320" y="400" />
            </Array>
          </mxGeometry>
        </mxCell>
        <mxCell id="-d-8ak7Yx_gB2rP6RjXS-10" value="青&lt;br&gt;黄&lt;br&gt;黒&lt;br&gt;白" style="text;html=1;align=center;verticalAlign=middle;resizable=0;points=[];autosize=1;strokeColor=none;fillColor=none;" vertex="1" parent="1">
          <mxGeometry x="590" y="373" width="40" height="70" as="geometry" />
        </mxCell>
        <mxCell id="-d-8ak7Yx_gB2rP6RjXS-11" value="" style="html=1;shape=mxgraph.electrical.electro-mechanical.singleSwitch;aspect=fixed;elSwitchState=off;" vertex="1" parent="1">
          <mxGeometry x="270" y="370" width="56.23" height="15" as="geometry" />
        </mxCell>
        <mxCell id="-d-8ak7Yx_gB2rP6RjXS-12" value="" style="endArrow=none;html=1;rounded=0;entryX=1;entryY=0.8;entryDx=0;entryDy=0;" edge="1" parent="1" target="-d-8ak7Yx_gB2rP6RjXS-11">
          <mxGeometry width="50" height="50" relative="1" as="geometry">
            <mxPoint x="400" y="380" as="sourcePoint" />
            <mxPoint x="350" y="380" as="targetPoint" />
          </mxGeometry>
        </mxCell>
        <mxCell id="-d-8ak7Yx_gB2rP6RjXS-13" value="" style="endArrow=none;html=1;rounded=0;entryX=0;entryY=0.8;entryDx=0;entryDy=0;exitX=0.5;exitY=0;exitDx=0;exitDy=0;exitPerimeter=0;" edge="1" parent="1" source="-d-8ak7Yx_gB2rP6RjXS-3" target="-d-8ak7Yx_gB2rP6RjXS-11">
          <mxGeometry width="50" height="50" relative="1" as="geometry">
            <mxPoint x="300" y="430" as="sourcePoint" />
            <mxPoint x="350" y="380" as="targetPoint" />
            <Array as="points">
              <mxPoint x="260" y="382" />
            </Array>
          </mxGeometry>
        </mxCell>
        <mxCell id="-d-8ak7Yx_gB2rP6RjXS-14" value="R1&lt;br&gt;9&amp;nbsp; &amp;nbsp; &amp;nbsp; &amp;nbsp; 5" style="text;html=1;align=center;verticalAlign=middle;resizable=0;points=[];autosize=1;strokeColor=none;fillColor=none;" vertex="1" parent="1">
          <mxGeometry x="270" y="333" width="60" height="40" as="geometry" />
        </mxCell>
        <mxCell id="-d-8ak7Yx_gB2rP6RjXS-16" value="" style="endArrow=none;html=1;rounded=0;exitX=1;exitY=0.075;exitDx=0;exitDy=0;exitPerimeter=0;entryX=0;entryY=0.5;entryDx=0;entryDy=0;" edge="1" parent="1" target="-d-8ak7Yx_gB2rP6RjXS-1">
          <mxGeometry width="50" height="50" relative="1" as="geometry">
            <mxPoint x="480" y="603" as="sourcePoint" />
            <mxPoint x="530" y="410" as="targetPoint" />
            <Array as="points">
              <mxPoint x="480" y="420" />
            </Array>
          </mxGeometry>
        </mxCell>
        <mxCell id="-d-8ak7Yx_gB2rP6RjXS-17" value="" style="endArrow=none;html=1;rounded=0;entryX=0.011;entryY=0.663;entryDx=0;entryDy=0;entryPerimeter=0;" edge="1" parent="1" target="-d-8ak7Yx_gB2rP6RjXS-1">
          <mxGeometry width="50" height="50" relative="1" as="geometry">
            <mxPoint x="480" y="640" as="sourcePoint" />
            <mxPoint x="520" y="440" as="targetPoint" />
            <Array as="points">
              <mxPoint x="520" y="640" />
              <mxPoint x="520" y="440" />
            </Array>
          </mxGeometry>
        </mxCell>
        <mxCell id="-d-8ak7Yx_gB2rP6RjXS-19" value="" style="endArrow=oval;html=1;rounded=0;exitX=0;exitY=0.5;exitDx=0;exitDy=0;startArrow=none;startFill=0;endFill=1;" edge="1" parent="1">
          <mxGeometry width="50" height="50" relative="1" as="geometry">
            <mxPoint x="420" y="470" as="sourcePoint" />
            <mxPoint x="420" y="380" as="targetPoint" />
          </mxGeometry>
        </mxCell>
        <mxCell id="-d-8ak7Yx_gB2rP6RjXS-20" value="" style="endArrow=oval;html=1;rounded=0;exitX=1;exitY=1;exitDx=0;exitDy=0;endFill=1;" edge="1" parent="1">
          <mxGeometry width="50" height="50" relative="1" as="geometry">
            <mxPoint x="460" y="480" as="sourcePoint" />
            <mxPoint x="520" y="480" as="targetPoint" />
          </mxGeometry>
        </mxCell>
        <mxCell id="-d-8ak7Yx_gB2rP6RjXS-21" value="" style="endArrow=oval;html=1;rounded=0;exitX=1;exitY=0;exitDx=0;exitDy=0;endFill=1;" edge="1" parent="1">
          <mxGeometry width="50" height="50" relative="1" as="geometry">
            <mxPoint x="460" y="460" as="sourcePoint" />
            <mxPoint x="480" y="460" as="targetPoint" />
          </mxGeometry>
        </mxCell>
        <mxCell id="-d-8ak7Yx_gB2rP6RjXS-22" value="R5" style="text;html=1;align=center;verticalAlign=middle;resizable=0;points=[];autosize=1;strokeColor=none;fillColor=none;" vertex="1" parent="1">
          <mxGeometry x="420" y="430" width="40" height="30" as="geometry" />
        </mxCell>
        <mxCell id="-d-8ak7Yx_gB2rP6RjXS-23" value="R5" style="text;html=1;align=center;verticalAlign=middle;resizable=0;points=[];autosize=1;strokeColor=none;fillColor=none;" vertex="1" parent="1">
          <mxGeometry x="400" y="580" width="40" height="30" as="geometry" />
        </mxCell>
        <mxCell id="-d-8ak7Yx_gB2rP6RjXS-25" value="" style="pointerEvents=1;verticalLabelPosition=bottom;shadow=0;dashed=0;align=center;html=1;verticalAlign=top;shape=mxgraph.electrical.electro-mechanical.twoWayContact2;elSwitchState=1;" vertex="1" parent="1">
          <mxGeometry x="420" y="460" width="40" height="20" as="geometry" />
        </mxCell>
        <mxCell id="-d-8ak7Yx_gB2rP6RjXS-26" value="" style="pointerEvents=1;verticalLabelPosition=bottom;shadow=0;dashed=0;align=center;html=1;verticalAlign=top;shape=mxgraph.electrical.electro-mechanical.twoWayContact2;elSwitchState=2;" vertex="1" parent="1">
          <mxGeometry x="400" y="600" width="80" height="40" as="geometry" />
        </mxCell>
      </root>
    </mxGraphModel>
  </diagram>
  <diagram id="8styozuSkIx840lt_fCG" name="ページ11">
    <mxGraphModel dx="574" dy="337" grid="1" gridSize="10" guides="1" tooltips="1" connect="1" arrows="1" fold="1" page="1" pageScale="1" pageWidth="827" pageHeight="1169" math="0" shadow="0">
      <root>
        <mxCell id="0" />
        <mxCell id="1" parent="0" />
        <mxCell id="YBKt_bg8IlkrbnHp_5iL-2" value="PLC&amp;nbsp; CP1L" style="rounded=0;whiteSpace=wrap;html=1;" vertex="1" parent="1">
          <mxGeometry x="400" y="280" width="120" height="220" as="geometry" />
        </mxCell>
        <mxCell id="YBKt_bg8IlkrbnHp_5iL-3" value="" style="rounded=0;whiteSpace=wrap;html=1;" vertex="1" parent="1">
          <mxGeometry x="520" y="280" width="40" height="20" as="geometry" />
        </mxCell>
        <mxCell id="YBKt_bg8IlkrbnHp_5iL-4" value="" style="rounded=0;whiteSpace=wrap;html=1;" vertex="1" parent="1">
          <mxGeometry x="520" y="300" width="40" height="20" as="geometry" />
        </mxCell>
        <mxCell id="YBKt_bg8IlkrbnHp_5iL-5" value="" style="rounded=0;whiteSpace=wrap;html=1;" vertex="1" parent="1">
          <mxGeometry x="520" y="320" width="40" height="20" as="geometry" />
        </mxCell>
        <mxCell id="YBKt_bg8IlkrbnHp_5iL-6" value="" style="rounded=0;whiteSpace=wrap;html=1;" vertex="1" parent="1">
          <mxGeometry x="520" y="340" width="40" height="20" as="geometry" />
        </mxCell>
        <mxCell id="YBKt_bg8IlkrbnHp_5iL-7" value="" style="rounded=0;whiteSpace=wrap;html=1;" vertex="1" parent="1">
          <mxGeometry x="520" y="360" width="40" height="20" as="geometry" />
        </mxCell>
        <mxCell id="YBKt_bg8IlkrbnHp_5iL-8" value="" style="rounded=0;whiteSpace=wrap;html=1;" vertex="1" parent="1">
          <mxGeometry x="520" y="380" width="40" height="20" as="geometry" />
        </mxCell>
        <mxCell id="YBKt_bg8IlkrbnHp_5iL-9" value="" style="rounded=0;whiteSpace=wrap;html=1;" vertex="1" parent="1">
          <mxGeometry x="520" y="400" width="40" height="20" as="geometry" />
        </mxCell>
        <mxCell id="YBKt_bg8IlkrbnHp_5iL-10" value="" style="rounded=0;whiteSpace=wrap;html=1;" vertex="1" parent="1">
          <mxGeometry x="520" y="420" width="40" height="20" as="geometry" />
        </mxCell>
        <mxCell id="YBKt_bg8IlkrbnHp_5iL-11" value="" style="rounded=0;whiteSpace=wrap;html=1;" vertex="1" parent="1">
          <mxGeometry x="520" y="440" width="40" height="20" as="geometry" />
        </mxCell>
        <mxCell id="YBKt_bg8IlkrbnHp_5iL-12" value="" style="rounded=0;whiteSpace=wrap;html=1;" vertex="1" parent="1">
          <mxGeometry x="520" y="460" width="40" height="20" as="geometry" />
        </mxCell>
        <mxCell id="YBKt_bg8IlkrbnHp_5iL-13" value="" style="rounded=0;whiteSpace=wrap;html=1;" vertex="1" parent="1">
          <mxGeometry x="520" y="480" width="40" height="20" as="geometry" />
        </mxCell>
        <mxCell id="YBKt_bg8IlkrbnHp_5iL-15" value="com" style="rounded=0;whiteSpace=wrap;html=1;" vertex="1" parent="1">
          <mxGeometry x="520" y="280" width="40" height="20" as="geometry" />
        </mxCell>
        <mxCell id="YBKt_bg8IlkrbnHp_5iL-16" value="00" style="rounded=0;whiteSpace=wrap;html=1;" vertex="1" parent="1">
          <mxGeometry x="520" y="300" width="40" height="20" as="geometry" />
        </mxCell>
        <mxCell id="YBKt_bg8IlkrbnHp_5iL-17" value="com" style="rounded=0;whiteSpace=wrap;html=1;" vertex="1" parent="1">
          <mxGeometry x="520" y="320" width="40" height="20" as="geometry" />
        </mxCell>
        <mxCell id="YBKt_bg8IlkrbnHp_5iL-18" value="01" style="rounded=0;whiteSpace=wrap;html=1;" vertex="1" parent="1">
          <mxGeometry x="520" y="340" width="40" height="20" as="geometry" />
        </mxCell>
        <mxCell id="YBKt_bg8IlkrbnHp_5iL-19" value="com" style="rounded=0;whiteSpace=wrap;html=1;" vertex="1" parent="1">
          <mxGeometry x="520" y="360" width="40" height="20" as="geometry" />
        </mxCell>
        <mxCell id="YBKt_bg8IlkrbnHp_5iL-20" value="02" style="rounded=0;whiteSpace=wrap;html=1;" vertex="1" parent="1">
          <mxGeometry x="520" y="380" width="40" height="20" as="geometry" />
        </mxCell>
        <mxCell id="YBKt_bg8IlkrbnHp_5iL-21" value="03" style="rounded=0;whiteSpace=wrap;html=1;" vertex="1" parent="1">
          <mxGeometry x="520" y="400" width="40" height="20" as="geometry" />
        </mxCell>
        <mxCell id="YBKt_bg8IlkrbnHp_5iL-22" value="com" style="rounded=0;whiteSpace=wrap;html=1;" vertex="1" parent="1">
          <mxGeometry x="520" y="420" width="40" height="20" as="geometry" />
        </mxCell>
        <mxCell id="YBKt_bg8IlkrbnHp_5iL-23" value="04" style="rounded=0;whiteSpace=wrap;html=1;" vertex="1" parent="1">
          <mxGeometry x="520" y="440" width="40" height="20" as="geometry" />
        </mxCell>
        <mxCell id="YBKt_bg8IlkrbnHp_5iL-24" value="05" style="rounded=0;whiteSpace=wrap;html=1;" vertex="1" parent="1">
          <mxGeometry x="520" y="460" width="40" height="20" as="geometry" />
        </mxCell>
        <mxCell id="YBKt_bg8IlkrbnHp_5iL-25" value="07" style="rounded=0;whiteSpace=wrap;html=1;" vertex="1" parent="1">
          <mxGeometry x="360" y="480" width="40" height="20" as="geometry" />
        </mxCell>
        <mxCell id="YBKt_bg8IlkrbnHp_5iL-26" value="+" style="rounded=0;whiteSpace=wrap;html=1;" vertex="1" parent="1">
          <mxGeometry x="360" y="280" width="40" height="20" as="geometry" />
        </mxCell>
        <mxCell id="YBKt_bg8IlkrbnHp_5iL-27" value="-" style="rounded=0;whiteSpace=wrap;html=1;" vertex="1" parent="1">
          <mxGeometry x="360" y="300" width="40" height="20" as="geometry" />
        </mxCell>
        <mxCell id="YBKt_bg8IlkrbnHp_5iL-28" value="com" style="rounded=0;whiteSpace=wrap;html=1;" vertex="1" parent="1">
          <mxGeometry x="360" y="320" width="40" height="20" as="geometry" />
        </mxCell>
        <mxCell id="YBKt_bg8IlkrbnHp_5iL-29" value="00" style="rounded=0;whiteSpace=wrap;html=1;" vertex="1" parent="1">
          <mxGeometry x="360" y="340" width="40" height="20" as="geometry" />
        </mxCell>
        <mxCell id="YBKt_bg8IlkrbnHp_5iL-30" value="01" style="rounded=0;whiteSpace=wrap;html=1;" vertex="1" parent="1">
          <mxGeometry x="360" y="360" width="40" height="20" as="geometry" />
        </mxCell>
        <mxCell id="YBKt_bg8IlkrbnHp_5iL-31" value="02" style="rounded=0;whiteSpace=wrap;html=1;" vertex="1" parent="1">
          <mxGeometry x="360" y="380" width="40" height="20" as="geometry" />
        </mxCell>
        <mxCell id="YBKt_bg8IlkrbnHp_5iL-32" value="03" style="rounded=0;whiteSpace=wrap;html=1;" vertex="1" parent="1">
          <mxGeometry x="360" y="400" width="40" height="20" as="geometry" />
        </mxCell>
        <mxCell id="YBKt_bg8IlkrbnHp_5iL-33" value="04" style="rounded=0;whiteSpace=wrap;html=1;" vertex="1" parent="1">
          <mxGeometry x="360" y="420" width="40" height="20" as="geometry" />
        </mxCell>
        <mxCell id="YBKt_bg8IlkrbnHp_5iL-34" value="05" style="rounded=0;whiteSpace=wrap;html=1;" vertex="1" parent="1">
          <mxGeometry x="360" y="440" width="40" height="20" as="geometry" />
        </mxCell>
        <mxCell id="YBKt_bg8IlkrbnHp_5iL-35" value="06" style="rounded=0;whiteSpace=wrap;html=1;" vertex="1" parent="1">
          <mxGeometry x="360" y="460" width="40" height="20" as="geometry" />
        </mxCell>
        <mxCell id="YBKt_bg8IlkrbnHp_5iL-36" value="光電センサ３" style="text;html=1;align=center;verticalAlign=middle;resizable=0;points=[];autosize=1;strokeColor=none;fillColor=none;" vertex="1" parent="1">
          <mxGeometry x="270" y="355" width="100" height="30" as="geometry" />
        </mxCell>
        <mxCell id="YBKt_bg8IlkrbnHp_5iL-37" value="押しボタンスイッチ" style="text;html=1;align=center;verticalAlign=middle;resizable=0;points=[];autosize=1;strokeColor=none;fillColor=none;" vertex="1" parent="1">
          <mxGeometry x="240" y="375" width="130" height="30" as="geometry" />
        </mxCell>
        <mxCell id="YBKt_bg8IlkrbnHp_5iL-38" value="光電センサ２" style="text;html=1;align=center;verticalAlign=middle;resizable=0;points=[];autosize=1;strokeColor=none;fillColor=none;" vertex="1" parent="1">
          <mxGeometry x="270" y="395" width="100" height="30" as="geometry" />
        </mxCell>
        <mxCell id="YBKt_bg8IlkrbnHp_5iL-39" value="金属センサ" style="text;html=1;align=center;verticalAlign=middle;resizable=0;points=[];autosize=1;strokeColor=none;fillColor=none;" vertex="1" parent="1">
          <mxGeometry x="280" y="415" width="80" height="30" as="geometry" />
        </mxCell>
        <mxCell id="YBKt_bg8IlkrbnHp_5iL-40" value="光電センサ１" style="text;html=1;align=center;verticalAlign=middle;resizable=0;points=[];autosize=1;strokeColor=none;fillColor=none;" vertex="1" parent="1">
          <mxGeometry x="270" y="435" width="100" height="30" as="geometry" />
        </mxCell>
        <mxCell id="YBKt_bg8IlkrbnHp_5iL-41" value="アルミセンサ" style="text;html=1;align=center;verticalAlign=middle;resizable=0;points=[];autosize=1;strokeColor=none;fillColor=none;" vertex="1" parent="1">
          <mxGeometry x="270" y="455" width="100" height="30" as="geometry" />
        </mxCell>
        <mxCell id="YBKt_bg8IlkrbnHp_5iL-42" value="光電センサ４" style="text;html=1;align=center;verticalAlign=middle;resizable=0;points=[];autosize=1;strokeColor=none;fillColor=none;" vertex="1" parent="1">
          <mxGeometry x="270" y="475" width="100" height="30" as="geometry" />
        </mxCell>
        <mxCell id="YBKt_bg8IlkrbnHp_5iL-43" value="R5" style="text;html=1;align=center;verticalAlign=middle;resizable=0;points=[];autosize=1;strokeColor=none;fillColor=none;" vertex="1" parent="1">
          <mxGeometry x="560" y="338" width="40" height="30" as="geometry" />
        </mxCell>
        <mxCell id="YBKt_bg8IlkrbnHp_5iL-44" value="R4" style="text;html=1;align=center;verticalAlign=middle;resizable=0;points=[];autosize=1;strokeColor=none;fillColor=none;" vertex="1" parent="1">
          <mxGeometry x="560" y="375" width="40" height="30" as="geometry" />
        </mxCell>
        <mxCell id="YBKt_bg8IlkrbnHp_5iL-45" value="R3" style="text;html=1;align=center;verticalAlign=middle;resizable=0;points=[];autosize=1;strokeColor=none;fillColor=none;" vertex="1" parent="1">
          <mxGeometry x="560" y="395" width="40" height="30" as="geometry" />
        </mxCell>
        <mxCell id="YBKt_bg8IlkrbnHp_5iL-46" value="R2" style="text;html=1;align=center;verticalAlign=middle;resizable=0;points=[];autosize=1;strokeColor=none;fillColor=none;" vertex="1" parent="1">
          <mxGeometry x="560" y="435" width="40" height="30" as="geometry" />
        </mxCell>
        <mxCell id="YBKt_bg8IlkrbnHp_5iL-47" value="R1" style="text;html=1;align=center;verticalAlign=middle;resizable=0;points=[];autosize=1;strokeColor=none;fillColor=none;" vertex="1" parent="1">
          <mxGeometry x="560" y="455" width="40" height="30" as="geometry" />
        </mxCell>
        <mxCell id="YBKt_bg8IlkrbnHp_5iL-48" value="+24V" style="text;html=1;align=center;verticalAlign=middle;resizable=0;points=[];autosize=1;strokeColor=none;fillColor=none;" vertex="1" parent="1">
          <mxGeometry x="555" y="415" width="50" height="30" as="geometry" />
        </mxCell>
        <mxCell id="YBKt_bg8IlkrbnHp_5iL-49" value="+24V" style="text;html=1;align=center;verticalAlign=middle;resizable=0;points=[];autosize=1;strokeColor=none;fillColor=none;" vertex="1" parent="1">
          <mxGeometry x="555" y="355" width="50" height="30" as="geometry" />
        </mxCell>
        <mxCell id="YBKt_bg8IlkrbnHp_5iL-50" value="+24V" style="text;html=1;align=center;verticalAlign=middle;resizable=0;points=[];autosize=1;strokeColor=none;fillColor=none;" vertex="1" parent="1">
          <mxGeometry x="555" y="320" width="50" height="30" as="geometry" />
        </mxCell>
        <mxCell id="YBKt_bg8IlkrbnHp_5iL-51" value="+24V" style="text;html=1;align=center;verticalAlign=middle;resizable=0;points=[];autosize=1;strokeColor=none;fillColor=none;" vertex="1" parent="1">
          <mxGeometry x="555" y="275" width="50" height="30" as="geometry" />
        </mxCell>
        <mxCell id="YBKt_bg8IlkrbnHp_5iL-52" value="+24V" style="text;html=1;align=center;verticalAlign=middle;resizable=0;points=[];autosize=1;strokeColor=none;fillColor=none;" vertex="1" parent="1">
          <mxGeometry x="320" y="275" width="50" height="30" as="geometry" />
        </mxCell>
        <mxCell id="YBKt_bg8IlkrbnHp_5iL-53" value="+24V" style="text;html=1;align=center;verticalAlign=middle;resizable=0;points=[];autosize=1;strokeColor=none;fillColor=none;" vertex="1" parent="1">
          <mxGeometry x="320" y="315" width="50" height="30" as="geometry" />
        </mxCell>
        <mxCell id="YBKt_bg8IlkrbnHp_5iL-54" value="-V" style="text;html=1;align=center;verticalAlign=middle;resizable=0;points=[];autosize=1;strokeColor=none;fillColor=none;" vertex="1" parent="1">
          <mxGeometry x="325" y="295" width="40" height="30" as="geometry" />
        </mxCell>
      </root>
    </mxGraphModel>
  </diagram>
  <diagram id="MHoU0GSCofbypyvsBMal" name="ページ12">
    <mxGraphModel dx="989" dy="581" grid="1" gridSize="10" guides="1" tooltips="1" connect="1" arrows="1" fold="1" page="1" pageScale="1" pageWidth="827" pageHeight="1169" math="0" shadow="0">
      <root>
        <mxCell id="0" />
        <mxCell id="1" parent="0" />
        <mxCell id="6JUscceJI1rHw8YtIhNt-11" value="" style="edgeStyle=orthogonalEdgeStyle;rounded=0;orthogonalLoop=1;jettySize=auto;html=1;" edge="1" parent="1" source="6JUscceJI1rHw8YtIhNt-1" target="6JUscceJI1rHw8YtIhNt-2">
          <mxGeometry relative="1" as="geometry" />
        </mxCell>
        <mxCell id="6JUscceJI1rHw8YtIhNt-1" value="スイッチON" style="rounded=0;whiteSpace=wrap;html=1;" vertex="1" parent="1">
          <mxGeometry x="160" y="280" width="200" height="40" as="geometry" />
        </mxCell>
        <mxCell id="6JUscceJI1rHw8YtIhNt-12" value="" style="edgeStyle=orthogonalEdgeStyle;rounded=0;orthogonalLoop=1;jettySize=auto;html=1;" edge="1" parent="1" source="6JUscceJI1rHw8YtIhNt-2" target="6JUscceJI1rHw8YtIhNt-3">
          <mxGeometry relative="1" as="geometry" />
        </mxCell>
        <mxCell id="6JUscceJI1rHw8YtIhNt-2" value="自己保持で出力，カウント１" style="rounded=0;whiteSpace=wrap;html=1;" vertex="1" parent="1">
          <mxGeometry x="160" y="360" width="200" height="40" as="geometry" />
        </mxCell>
        <mxCell id="6JUscceJI1rHw8YtIhNt-13" value="" style="edgeStyle=orthogonalEdgeStyle;rounded=0;orthogonalLoop=1;jettySize=auto;html=1;" edge="1" parent="1" source="6JUscceJI1rHw8YtIhNt-3" target="6JUscceJI1rHw8YtIhNt-4">
          <mxGeometry relative="1" as="geometry" />
        </mxCell>
        <mxCell id="6JUscceJI1rHw8YtIhNt-3" value="タイマ１，タイマ２起動，電源（R3）OFF" style="rounded=0;whiteSpace=wrap;html=1;" vertex="1" parent="1">
          <mxGeometry x="160" y="440" width="200" height="40" as="geometry" />
        </mxCell>
        <mxCell id="6JUscceJI1rHw8YtIhNt-14" value="" style="edgeStyle=orthogonalEdgeStyle;rounded=0;orthogonalLoop=1;jettySize=auto;html=1;" edge="1" parent="1" source="6JUscceJI1rHw8YtIhNt-4" target="6JUscceJI1rHw8YtIhNt-5">
          <mxGeometry relative="1" as="geometry" />
        </mxCell>
        <mxCell id="6JUscceJI1rHw8YtIhNt-4" value="タイマ１ON　ー＞回転方向切り替え" style="rounded=0;whiteSpace=wrap;html=1;" vertex="1" parent="1">
          <mxGeometry x="160" y="520" width="200" height="40" as="geometry" />
        </mxCell>
        <mxCell id="6JUscceJI1rHw8YtIhNt-15" value="" style="edgeStyle=orthogonalEdgeStyle;rounded=0;orthogonalLoop=1;jettySize=auto;html=1;" edge="1" parent="1" source="6JUscceJI1rHw8YtIhNt-5" target="6JUscceJI1rHw8YtIhNt-6">
          <mxGeometry relative="1" as="geometry" />
        </mxCell>
        <mxCell id="6JUscceJI1rHw8YtIhNt-5" value="タイマ２ON　ー＞電源&lt;span style=&quot;color: rgba(0, 0, 0, 0); font-family: monospace; font-size: 0px; text-align: start; text-wrap: nowrap;&quot;&gt;%3CmxGraphModel%3E%3Croot%3E%3CmxCell%20id%3D%220%22%2F%3E%3CmxCell%20id%3D%221%22%20parent%3D%220%22%2F%3E%3CmxCell%20id%3D%222%22%20value%3D%22%E3%82%BF%E3%82%A4%E3%83%9E%EF%BC%91ON%E3%80%80%E3%83%BC%EF%BC%9E%E5%9B%9E%E8%BB%A2%E6%96%B9%E5%90%91%E5%88%87%E3%82%8A%E6%9B%BF%E3%81%88%22%20style%3D%22rounded%3D0%3BwhiteSpace%3Dwrap%3Bhtml%3D1%3B%22%20vertex%3D%221%22%20parent%3D%221%22%3E%3CmxGeometry%20x%3D%22160%22%20y%3D%22520%22%20width%3D%22200%22%20height%3D%2240%22%20as%3D%22geometry%22%2F%3E%3C%2FmxCell%3E%3C%2Froot%3E%3C%2FmxGraphModel%3E&lt;/span&gt;ON" style="rounded=0;whiteSpace=wrap;html=1;" vertex="1" parent="1">
          <mxGeometry x="160" y="600" width="200" height="40" as="geometry" />
        </mxCell>
        <mxCell id="6JUscceJI1rHw8YtIhNt-16" style="edgeStyle=orthogonalEdgeStyle;rounded=0;orthogonalLoop=1;jettySize=auto;html=1;entryX=0.5;entryY=0;entryDx=0;entryDy=0;" edge="1" parent="1" source="6JUscceJI1rHw8YtIhNt-6" target="6JUscceJI1rHw8YtIhNt-7">
          <mxGeometry relative="1" as="geometry" />
        </mxCell>
        <mxCell id="6JUscceJI1rHw8YtIhNt-6" value="逆回転" style="rounded=0;whiteSpace=wrap;html=1;" vertex="1" parent="1">
          <mxGeometry x="160" y="680" width="200" height="40" as="geometry" />
        </mxCell>
        <mxCell id="6JUscceJI1rHw8YtIhNt-17" value="" style="edgeStyle=orthogonalEdgeStyle;rounded=0;orthogonalLoop=1;jettySize=auto;html=1;" edge="1" parent="1" source="6JUscceJI1rHw8YtIhNt-7" target="6JUscceJI1rHw8YtIhNt-8">
          <mxGeometry relative="1" as="geometry" />
        </mxCell>
        <mxCell id="6JUscceJI1rHw8YtIhNt-7" value="スイッチON" style="rounded=0;whiteSpace=wrap;html=1;" vertex="1" parent="1">
          <mxGeometry x="400" y="320" width="200" height="40" as="geometry" />
        </mxCell>
        <mxCell id="6JUscceJI1rHw8YtIhNt-18" value="" style="edgeStyle=orthogonalEdgeStyle;rounded=0;orthogonalLoop=1;jettySize=auto;html=1;" edge="1" parent="1" source="6JUscceJI1rHw8YtIhNt-8" target="6JUscceJI1rHw8YtIhNt-9">
          <mxGeometry relative="1" as="geometry" />
        </mxCell>
        <mxCell id="6JUscceJI1rHw8YtIhNt-8" value="カウンタ出力ー＞電源OFF" style="rounded=0;whiteSpace=wrap;html=1;" vertex="1" parent="1">
          <mxGeometry x="400" y="400" width="200" height="40" as="geometry" />
        </mxCell>
        <mxCell id="6JUscceJI1rHw8YtIhNt-19" value="" style="edgeStyle=orthogonalEdgeStyle;rounded=0;orthogonalLoop=1;jettySize=auto;html=1;" edge="1" parent="1" source="6JUscceJI1rHw8YtIhNt-9" target="6JUscceJI1rHw8YtIhNt-10">
          <mxGeometry relative="1" as="geometry" />
        </mxCell>
        <mxCell id="6JUscceJI1rHw8YtIhNt-9" value="タイマを使用してカウンタを&lt;div&gt;リセット&lt;/div&gt;" style="rounded=0;whiteSpace=wrap;html=1;" vertex="1" parent="1">
          <mxGeometry x="400" y="480" width="200" height="40" as="geometry" />
        </mxCell>
        <mxCell id="6JUscceJI1rHw8YtIhNt-10" value="正回転して初期状態に戻る" style="rounded=0;whiteSpace=wrap;html=1;" vertex="1" parent="1">
          <mxGeometry x="400" y="560" width="200" height="40" as="geometry" />
        </mxCell>
      </root>
    </mxGraphModel>
  </diagram>
</mxfile>
